<svg width="37" height="40" viewBox="0 0 37 40" fill="none" xmlns="http://www.w3.org/2000/svg">
<path fill-rule="evenodd" clip-rule="evenodd" d="M17.5842 0.165049C16.865 0.375681 16.3749 0.611135 15.8195 1.01276C15.4255 1.29759 15.3907 1.30518 14.3399 1.33634C13.3697 1.36509 13.2117 1.39366 12.7345 1.62697C10.8536 2.54655 9.62923 5.45469 9.27628 9.84126C9.22534 10.4746 9.18365 11.5673 9.18365 12.2696C9.18365 14.6283 8.8758 17.0726 8.46097 18.008C8.366 18.222 8.16702 18.5348 8.01861 18.7031C7.85755 18.8857 7.74887 19.1086 7.74887 19.2564C7.74887 19.9662 9.48782 21.3273 11.0702 21.8559L11.7807 22.0933L11.3523 22.5135C10.9551 22.903 10.7186 23.0154 8.10783 24.0559C6.55899 24.6733 5.13282 25.259 4.93859 25.3577C4.44834 25.6067 3.77274 26.3033 3.49807 26.8431C3.33316 27.1672 2.88739 28.9995 1.92923 33.2927C0.814404 38.2873 0.606003 39.3332 0.681956 39.5502C0.795035 39.8732 0.996711 39.9855 1.46373 39.9855C1.7454 39.9855 1.85713 39.9387 1.96447 39.7755C2.04051 39.66 2.68894 36.94 3.40543 33.7311C4.12193 30.5221 4.76821 27.7708 4.84156 27.6168C5.16411 26.94 5.51402 26.7347 8.10927 25.6987C9.46163 25.1589 10.5996 24.7172 10.6381 24.7172C10.6766 24.7172 10.7081 25.34 10.7081 26.1012C10.7081 27.7251 10.6993 27.7074 11.6611 28.022C12.0001 28.1329 12.2932 28.2373 12.3125 28.254C12.3319 28.2707 12.1402 28.5991 11.8866 28.9837C11.3469 29.8021 11.2811 30.2179 11.639 30.5476C11.7564 30.6557 13.5311 32.1103 15.5828 33.78L19.3132 36.8158L19.315 38.2221C19.3166 39.508 19.3321 39.6437 19.4961 39.807C19.7395 40.0493 20.3288 40.0493 20.5722 39.807C20.7391 39.6408 20.7515 39.509 20.752 37.9096C20.7524 36.2717 20.7412 36.1601 20.5142 35.5392C20.3757 35.1602 20.3098 34.8569 20.3568 34.8145C20.4013 34.7743 21.5676 33.8268 22.9485 32.7089C24.3295 31.591 25.5301 30.5968 25.6163 30.4994C25.9025 30.1769 25.8166 29.7488 25.3122 28.9837C25.0586 28.5991 24.8668 28.2707 24.8862 28.254C24.9056 28.2373 25.1986 28.1329 25.5376 28.022C26.4994 27.7074 26.4907 27.7251 26.4907 26.1012C26.4907 25.34 26.5221 24.7172 26.5607 24.7172C26.5992 24.7172 27.7371 25.1589 29.0895 25.6987C31.6847 26.7347 32.0346 26.94 32.3572 27.6168C32.4306 27.7708 33.0768 30.5221 33.7933 33.7311C34.5098 36.94 35.1582 39.66 35.2343 39.7755C35.516 40.2037 36.5113 39.9732 36.5444 39.4721C36.5652 39.1576 36.5026 38.8562 35.2258 33.1222C34.3609 29.2384 33.8554 27.1473 33.7149 26.872C33.3768 26.2093 32.8338 25.6662 32.1666 25.3234C31.8314 25.1512 30.3634 24.5408 28.9042 23.967C26.4897 23.0173 26.217 22.8888 25.8697 22.5365L25.4881 22.1493L26.1691 21.9984C27.9224 21.61 29.3569 20.3963 29.3594 19.2992C29.36 18.9948 29.3024 18.8651 29.046 18.5944C28.841 18.3781 28.6678 18.0573 28.548 17.6728C28.191 16.5269 28.0955 15.5115 28.0139 11.9936C27.9612 9.71599 27.8892 8.30737 27.7949 7.7086C27.1403 3.55364 25.2563 1.14785 21.9508 0.246391C20.8932 -0.042101 18.4467 -0.0876382 17.5842 0.165049ZM20.5029 1.54563C21.2622 1.60902 22.1499 1.87734 22.9129 2.27405C24.7061 3.2064 25.836 5.09405 26.2721 7.88628C26.3652 8.48246 26.4372 9.90653 26.4888 12.1721C26.5823 16.2865 26.7521 17.5352 27.4033 18.8996L27.6737 19.4661L27.4216 19.7281C27.0792 20.084 26.4051 20.3867 25.5753 20.5571C24.5689 20.7639 23.9932 20.7434 23.5203 20.4837C23.3045 20.3654 22.9619 20.22 22.7591 20.1608L22.3902 20.0532L22.3335 19.385L22.2767 18.7167L22.8117 18.1355C23.1691 17.7471 23.4965 17.2537 23.7981 16.6489C24.0463 16.151 24.2494 15.6963 24.2492 15.6384C24.249 15.5805 24.4917 15.3025 24.7885 15.0206C25.7796 14.0792 26.1477 13.2928 26.1477 12.1169C26.1477 11.3159 25.8552 10.6774 25.2859 10.2356C25.0684 10.067 24.7255 9.72116 24.5238 9.46705C24.0257 8.83953 23.102 8.16969 21.6034 7.34912C18.4545 5.62496 17.7121 5.08378 17.2527 4.17759C16.9776 3.63507 16.8705 3.55578 16.4121 3.55578C15.9473 3.55578 15.8227 3.7182 15.588 4.63136C15.2487 5.95077 14.8004 6.76312 13.8393 7.79976C13.3854 8.28933 12.8031 9.01132 12.5454 9.40419C12.2877 9.79706 11.9541 10.2073 11.8043 10.316C10.9132 10.9617 10.7928 12.7532 11.5538 14.0443C11.6706 14.2423 12.0325 14.6588 12.358 14.9698C12.6836 15.2808 12.9499 15.5824 12.9499 15.6401C12.9499 15.6978 13.1478 16.1465 13.3896 16.6372C13.6924 17.2518 14.0026 17.7179 14.3863 18.1347L14.9434 18.7399L14.8817 19.3949L14.8201 20.0498L14.4454 20.1591C14.2394 20.2192 13.8943 20.3654 13.6784 20.4837C13.2241 20.7332 12.841 20.7527 12.0945 20.5644C11.4888 20.4116 10.2537 19.8236 9.86821 19.5046L9.61112 19.2919L9.83853 18.7232C10.4101 17.2935 10.7061 15.1109 10.7088 12.3061C10.7134 7.44814 11.8171 3.73267 13.4735 2.99853C13.8748 2.82067 14.6576 2.77754 15.4194 2.8913C15.8541 2.95621 16.1761 2.82192 16.5666 2.41289C17.1031 1.85091 18.6111 1.37821 19.5858 1.4667C19.7584 1.48241 20.1711 1.51786 20.5029 1.54563ZM17.1785 6.47133C17.7337 6.93607 18.2693 7.26644 20.1315 8.29228C22.3014 9.48776 22.4209 9.57286 23.6127 10.7723C24.5986 11.7645 24.6352 11.8153 24.6298 12.1787C24.619 12.8871 24.0245 13.8291 23.311 14.2681C23.0702 14.4163 22.9673 14.5899 22.7319 15.2451C22.4169 16.122 21.7728 17.1161 21.2277 17.567C19.721 18.8131 17.418 18.7949 15.9283 17.525C15.3813 17.0588 14.8442 16.2303 14.4772 15.2864C14.193 14.5556 14.11 14.4316 13.6673 14.0768C12.9844 13.5296 12.5912 12.8589 12.5912 12.2408C12.5912 11.7844 12.612 11.7436 13.1227 11.197C13.415 10.8841 13.7384 10.4638 13.8414 10.2628C13.9443 10.0618 14.3466 9.56116 14.7353 9.15025C15.6601 8.17272 16.1819 7.45761 16.4985 6.73392C16.6402 6.41007 16.7635 6.14516 16.7725 6.14516C16.7815 6.14516 16.9643 6.29195 17.1785 6.47133ZM17.2094 19.8635C18.0627 20.0905 19.6047 20.0093 20.6288 19.6833C20.8049 19.6272 20.8245 19.6628 20.8781 20.1385C20.9101 20.4223 21.0396 21.3577 21.1657 22.2171L21.3953 23.7797L20.8612 25.0743C20.3589 26.2922 20.3065 26.3794 19.9789 26.5439C19.4311 26.819 18.1824 26.8328 17.4375 26.5718L16.8585 26.369L16.3303 25.0743L15.8021 23.7797L15.9886 22.6189C16.0911 21.9805 16.2236 21.046 16.2828 20.5421C16.3845 19.6783 16.4012 19.6295 16.5759 19.6852C16.6778 19.7176 16.9628 19.7978 17.2094 19.8635ZM14.564 21.793C14.5639 21.8052 14.5034 22.1568 14.4296 22.5743C14.1888 23.9353 14.119 23.687 16.2214 28.9543C17.279 31.6039 18.1316 33.7845 18.116 33.8C18.0916 33.8243 13.6628 30.2569 13.3163 29.9338C13.2081 29.8329 13.2708 29.6925 13.7422 28.9807C14.1689 28.3364 14.295 28.0705 14.295 27.8155C14.295 27.3477 14.0919 27.1904 13.0483 26.8498L12.1429 26.5543V25.2489V23.9435L13.2557 22.8571C14.1811 21.9537 14.5648 21.6416 14.564 21.793ZM23.943 22.8571L25.0559 23.9435V25.2489V26.5543L24.1504 26.8498C23.1068 27.1904 22.9037 27.3477 22.9037 27.8155C22.9037 28.0705 23.0299 28.3364 23.4566 28.9807C23.9283 29.6932 23.9907 29.8329 23.8825 29.9344C23.8127 29.9998 22.8363 30.8031 21.7126 31.7196L19.6695 33.3858L19.5307 33.0551L19.3919 32.7242L21.114 28.5198C22.0611 26.2074 22.8566 24.1436 22.8818 23.9336C22.9216 23.6016 22.8084 22.588 22.6628 21.9716C22.6337 21.8487 22.657 21.7707 22.7228 21.7707C22.7818 21.7707 23.331 22.2595 23.943 22.8571ZM19.4775 28.3308C19.5075 28.3595 18.8223 30.0918 18.6556 30.4085C18.5521 30.6054 18.5171 30.5496 18.1269 29.5657C17.8971 28.9861 17.6869 28.4517 17.6599 28.378C17.6178 28.2633 17.7426 28.2485 18.531 28.2749C19.0372 28.2919 19.463 28.317 19.4775 28.3308ZM5.94472 29.3608C5.86491 29.4073 5.75219 29.5591 5.69426 29.6984C5.60531 29.9122 5.62522 30.0658 5.82241 30.6874C6.28566 32.1474 6.32037 32.4925 6.37605 36.1807C6.42466 39.4089 6.44008 39.6646 6.5954 39.8192C6.82989 40.0527 7.42263 40.0425 7.66529 39.8009C7.84805 39.6189 7.85011 39.5634 7.81298 35.8499C7.78169 32.7216 7.74976 31.9776 7.62449 31.4585C7.34623 30.3053 7.11165 29.6186 6.93642 29.4441C6.7491 29.2576 6.20128 29.2115 5.94472 29.3608ZM30.2611 29.4454C29.9265 29.7785 29.3602 32.0898 29.3602 33.122V33.5568H26.67C24.0993 33.5568 23.9718 33.5647 23.8004 33.7353C23.6285 33.9065 23.6211 34.0329 23.6211 36.7712C23.6211 39.5094 23.6285 39.6358 23.8004 39.807C23.9732 39.9789 24.0993 39.9855 27.208 39.9855C30.2402 39.9855 30.4464 39.9755 30.6037 39.8188C30.7595 39.6638 30.7747 39.4129 30.8224 36.225C30.8769 32.5904 30.9069 32.2933 31.3824 30.6842C31.5952 29.9642 31.6021 29.8871 31.4759 29.6442C31.401 29.4999 31.2744 29.3569 31.1945 29.3264C30.8978 29.213 30.4352 29.272 30.2611 29.4454ZM11.6048 33.7353C11.4494 33.8901 11.4255 34.0329 11.4255 34.8068V35.6997H10.5288C9.4671 35.6997 9.27332 35.81 9.27332 36.414C9.27332 37.018 9.4671 37.1283 10.5288 37.1283H11.4255V38.0212C11.4255 39.0783 11.5362 39.2712 12.1429 39.2712C12.7495 39.2712 12.8603 39.0783 12.8603 38.0212V37.1283H13.757C14.8186 37.1283 15.0124 37.018 15.0124 36.414C15.0124 35.81 14.8186 35.6997 13.757 35.6997H12.8603V34.8068C12.8603 33.7497 12.7495 33.5568 12.1429 33.5568C11.9037 33.5568 11.7244 33.6163 11.6048 33.7353ZM29.3602 36.7712V38.5569H27.208H25.0559V36.7712V34.9854H27.208H29.3602V36.7712ZM17.3439 37.3069C17.2244 37.4259 17.1646 37.6045 17.1646 37.8426C17.1646 38.3188 17.4038 38.5569 17.882 38.5569C18.3602 38.5569 18.5994 38.3188 18.5994 37.8426C18.5994 37.6045 18.5396 37.4259 18.42 37.3069C18.3005 37.1879 18.1211 37.1283 17.882 37.1283C17.6428 37.1283 17.4635 37.1879 17.3439 37.3069Z" fill="#70DCAE"/>
</svg>
