<svg width="27" height="40" viewBox="0 0 27 40" fill="none" xmlns="http://www.w3.org/2000/svg">
<g id="image 19 (Traced)">
<path id="image 19 (Traced)_2" fill-rule="evenodd" clip-rule="evenodd" d="M12.968 0.180015C12.8144 0.344888 12.8087 0.442359 12.8087 2.94209C12.8087 5.44518 12.8142 5.54023 12.9706 5.739C13.1992 6.0297 13.6678 6.0297 13.8965 5.739C14.0527 5.54031 14.0584 5.44479 14.0584 2.97693C14.0584 0.509058 14.0527 0.41354 13.8965 0.214848C13.6833 -0.0561657 13.2047 -0.0741291 12.968 0.180015ZM7.57589 3.28933C7.42125 3.44398 7.38595 3.5748 7.41852 3.87276C7.42773 3.95742 7.80762 4.66861 8.26272 5.45331C8.9754 6.68208 9.12434 6.89116 9.33709 6.96138C9.78423 7.10899 10.1533 6.84579 10.1533 6.3792C10.1533 6.16177 8.59177 3.39251 8.378 3.23076C8.17939 3.08049 7.75365 3.11157 7.57589 3.28933ZM18.491 3.23076C18.2754 3.39641 16.7138 6.16169 16.7138 6.37795C16.7138 6.84579 17.0823 7.10915 17.53 6.96138C17.7429 6.89116 17.8923 6.68107 18.6122 5.43979C19.5113 3.88955 19.6025 3.60065 19.2912 3.28933C19.1135 3.11165 18.6868 3.08041 18.491 3.23076ZM2.11445 6.46301C1.91662 6.71442 1.90608 7.0458 2.08923 7.25566C2.31541 7.51481 6.44263 9.8499 6.67452 9.8499C6.97904 9.8499 7.15797 9.72861 7.25224 9.45814C7.34659 9.18752 7.27793 8.93736 7.05769 8.74921C6.97755 8.68079 5.98066 8.09198 4.84232 7.44077C2.59486 6.15497 2.40906 6.08843 2.11445 6.46301ZM22.1785 7.35509C19.8142 8.71328 19.694 8.79216 19.597 9.0474C19.4443 9.44877 19.7424 9.8499 20.1933 9.8499C20.4267 9.8499 24.5521 7.51598 24.7779 7.25629C25.0901 6.89694 24.8099 6.25721 24.3403 6.25721C24.1607 6.25721 23.5477 6.5686 22.1785 7.35509ZM12.0404 7.66554C10.6606 8.027 9.37443 9.06779 8.76078 10.3194C8.3181 11.2225 8.17392 11.8303 8.17751 12.7787C8.18321 14.2831 8.62769 15.3514 9.70214 16.4429L10.3876 17.1392V17.7495C10.3876 18.4569 10.2346 18.9196 9.92957 19.1356C9.81633 19.2157 9.20658 19.4992 8.5745 19.7654C7.17656 20.3542 6.67936 20.6686 5.99644 21.3953C5.08147 22.3691 4.59919 23.6115 4.47899 25.3044C4.43377 25.9415 4.44299 26.0082 4.59708 26.1623C4.80359 26.3688 5.22713 26.3832 5.46347 26.1919C5.60522 26.0772 5.65169 25.9053 5.74448 25.1527C5.91779 23.7469 6.23035 22.9997 6.97474 22.2117C7.49607 21.6599 7.90088 21.4148 9.1395 20.9007C9.71854 20.6604 10.3408 20.3767 10.5223 20.2703C11.1918 19.878 11.6372 19.029 11.6372 18.1453C11.6372 17.7733 11.6539 17.728 11.7739 17.7752C12.0436 17.8813 13.0641 18.0506 13.4335 18.0506C13.7965 18.0506 14.8224 17.8818 15.0827 17.7793C15.19 17.737 15.2143 17.8147 15.2457 18.3001C15.2916 19.0086 15.5002 19.4965 15.9492 19.9456C16.2263 20.2226 16.5251 20.3862 17.537 20.8147C18.9843 21.4275 19.3645 21.6531 19.8923 22.2117C20.3526 22.6989 20.6399 23.1716 20.856 23.7974C21.0253 24.2876 21.7905 30.4612 21.7905 31.337C21.7905 32.2747 21.1902 33.23 20.3674 33.6018C19.966 33.7832 19.8915 33.7888 17.5594 33.8118L15.1637 33.8355L15.3139 33.44C15.4961 32.9604 15.5111 32.1835 15.347 31.7185C15.2826 31.5359 15.2299 31.3732 15.2299 31.3572C15.2299 31.3411 15.6323 31.3279 16.1242 31.3279C17.3661 31.3279 17.7495 31.2336 18.1547 30.8284C18.7181 30.2651 18.7252 30.1727 18.4409 27.1327C18.2164 24.7318 18.18 24.4851 18.0264 24.3217C17.7562 24.0341 17.2131 24.1059 17.0269 24.4539C16.9684 24.563 17.0116 25.3058 17.1813 27.1106C17.3108 28.4885 17.4167 29.6496 17.4167 29.6909C17.4167 29.7322 17.3465 29.8362 17.2605 29.9221C17.1088 30.0739 17.0002 30.0783 13.4335 30.0783C9.86686 30.0783 9.7583 30.0739 9.60655 29.9221C9.52063 29.8362 9.45034 29.7322 9.45034 29.6909C9.45034 29.6496 9.55633 28.4885 9.68582 27.1106C9.85546 25.3058 9.89865 24.563 9.84023 24.4539C9.65403 24.1059 9.11091 24.0341 8.84068 24.3217C8.68713 24.4851 8.65073 24.7318 8.42619 27.1327C8.1419 30.1727 8.14901 30.2651 8.71243 30.8284C9.15652 31.2726 9.47354 31.3279 11.5718 31.3279C13.1824 31.3279 13.3144 31.3388 13.5894 31.4934C14.4845 31.9964 14.3773 33.3388 13.4126 33.7072C13.1172 33.8201 12.7 33.8328 9.95527 33.8119L6.83392 33.7882L6.43381 33.5771C5.61007 33.1426 5.07507 32.246 5.07827 31.3055C5.07913 31.0387 5.147 30.258 5.22901 29.5707C5.39372 28.1908 5.36896 28.0166 4.98213 27.8312C4.71611 27.7036 4.39909 27.7801 4.24992 28.0078C4.18275 28.1104 4.06865 28.7292 3.97453 29.5016C3.77764 31.1182 3.80107 32.1263 4.04873 32.6851C4.14159 32.8947 4.21751 33.0738 4.21751 33.0834C4.21751 33.0929 3.89245 33.1225 3.49506 33.1491C2.58494 33.2099 2.10657 33.3528 1.49979 33.745C0.562569 34.3507 0 35.4256 0 36.6105C0 37.9458 0.736189 39.1143 1.95255 39.7097L2.46021 39.9582L10.7543 39.9792L19.0482 40L19.2088 39.8277C19.3975 39.6252 19.4152 39.2445 19.2463 39.021C19.13 38.867 19.0136 38.8642 11.0676 38.8257L3.00693 38.7867L2.5769 38.5849C2.04151 38.3338 1.67045 37.9688 1.4338 37.4606C0.932147 36.3834 1.47769 35.0565 2.62907 34.5531C2.85221 34.4555 3.23225 34.4138 4.11574 34.3897C5.239 34.3592 5.31554 34.3666 5.54274 34.5283C5.67481 34.6224 5.98417 34.7755 6.23027 34.8685C6.67428 35.0365 6.72739 35.0379 13.1724 35.0599C20.3645 35.0843 20.4298 35.0806 21.2016 34.6007L21.5921 34.3581L22.7652 34.39C23.6362 34.4138 24.0155 34.4558 24.238 34.5531C25.3894 35.0565 25.9349 36.3834 25.4333 37.4606C25.1956 37.971 24.8235 38.3357 24.2902 38.5809C23.8973 38.7615 23.7409 38.7823 22.477 38.8217C21.2133 38.861 21.0837 38.8783 20.976 39.021C20.8057 39.2467 20.8252 39.6253 21.0176 39.8319C21.1797 40.0059 21.2053 40.008 22.7945 39.9833L24.4069 39.9582L24.9145 39.7097C26.1309 39.1143 26.8671 37.9458 26.8671 36.6105C26.8671 35.4256 26.3045 34.3507 25.3673 33.745C24.7605 33.3528 24.2821 33.2099 23.372 33.1491C22.9747 33.1225 22.6496 33.0929 22.6496 33.0834C22.6496 33.0738 22.7252 32.8951 22.8177 32.6861C23.1169 32.0096 23.0982 31.2583 22.6952 27.7743C22.4964 26.0561 22.2799 24.3691 22.2141 24.0254C22.0363 23.0974 21.5197 22.0861 20.8706 21.3953C20.1877 20.6686 19.6905 20.3542 18.2926 19.7654C17.6605 19.4992 17.0508 19.2157 16.9375 19.1356C16.6324 18.9196 16.4795 18.4569 16.4795 17.7495V17.1392L17.1649 16.4429C17.9157 15.6803 18.3086 15.0083 18.5541 14.0674C18.7298 13.3944 18.7335 12.157 18.5619 11.49C18.0804 9.61848 16.6126 8.12658 14.796 7.66195C13.9962 7.4574 12.8292 7.45896 12.0404 7.66554ZM14.4386 8.86996C16.2165 9.3431 17.425 10.9094 17.4326 12.7501C17.4373 13.8907 17.0189 14.8541 16.1719 15.6532C15.1586 16.609 13.8615 16.9824 12.5932 16.6834C10.7329 16.2447 9.4141 14.6001 9.43097 12.7398C9.44753 10.9133 10.6458 9.36028 12.4182 8.86808C12.9004 8.73414 13.932 8.73507 14.4386 8.86996ZM2.84721 12.6971C2.57846 12.9659 2.58486 13.3757 2.86127 13.5931C3.05184 13.7431 3.16914 13.755 4.45181 13.755C5.73448 13.755 5.85179 13.7431 6.04236 13.5931C6.31876 13.3757 6.32517 12.9659 6.05642 12.6971C5.86702 12.5076 5.84781 12.5054 4.45181 12.5054C3.05582 12.5054 3.03661 12.5076 2.84721 12.6971ZM20.8107 12.6971C20.5419 12.9659 20.5483 13.3757 20.8247 13.5931C21.0153 13.7431 21.1326 13.755 22.4153 13.755C23.6979 13.755 23.8152 13.7431 24.0058 13.5931C24.2822 13.3757 24.2886 12.9659 24.0199 12.6971C23.8305 12.5076 23.8113 12.5054 22.4153 12.5054C21.0193 12.5054 21.0001 12.5076 20.8107 12.6971ZM4.9904 17.2794C1.79447 19.1126 1.95255 18.9997 1.95255 19.4492C1.95255 19.7375 2.24684 20.0032 2.5662 20.0032C2.74989 20.0032 3.4097 19.6608 4.99853 18.741C7.36064 17.3737 7.43047 17.3135 7.25122 16.7993C7.15977 16.537 6.97857 16.4105 6.69428 16.4105C6.59032 16.4105 5.8236 16.8015 4.9904 17.2794ZM19.8173 16.5081C19.6135 16.6628 19.5203 16.9969 19.6094 17.2526C19.674 17.4381 20.0552 17.689 21.8682 18.7395C24.2204 20.1023 24.4135 20.175 24.7447 19.8224C24.9725 19.5799 24.9697 19.1811 24.7388 18.9765C24.3838 18.662 20.3607 16.4105 20.1538 16.4105C20.0394 16.4105 19.888 16.4544 19.8173 16.5081Z" fill="#91C151"/>
</g>
</svg>
