<svg width="37" height="40" viewBox="0 0 37 40" fill="none" xmlns="http://www.w3.org/2000/svg">
<path fill-rule="evenodd" clip-rule="evenodd" d="M7.04436 0.0568598C5.35961 0.291321 3.88249 1.06948 2.64086 2.37669C1.25206 3.83865 0.575501 5.69518 0.678125 7.76233C0.733483 8.87808 0.897512 9.55966 1.34097 10.5169C2.22039 12.4153 3.72715 13.764 5.74302 14.4572C6.55763 14.7373 6.59434 14.7418 8.06115 14.7429C9.5186 14.7438 9.56944 14.7377 10.3606 14.4685C10.8056 14.3171 11.325 14.1038 11.5147 13.9945L11.8596 13.7956L12.6248 14.8654C13.0457 15.4537 13.4915 15.9921 13.6155 16.0617C14.0536 16.3075 14.6321 15.8641 14.5062 15.3788C14.4767 15.2649 14.1064 14.6941 13.6834 14.1102L12.9142 13.0486L13.4157 12.5346C14.2904 11.6381 14.8728 10.6209 15.2348 9.35731C15.5123 8.38889 15.5112 6.4345 15.2326 5.46285C14.3323 2.32287 11.6532 0.181372 8.42532 0.0217715C7.96739 -0.000882664 7.34593 0.0148731 7.04436 0.0568598ZM27.7403 0.0573709C26.1544 0.389347 24.898 1.09554 23.7576 2.29604C23.0053 3.08808 22.4509 4.01511 22.093 5.0796C21.8282 5.86704 21.8209 5.92862 21.8209 7.37908C21.8209 8.82954 21.8282 8.89111 22.093 9.67856C22.4473 10.7325 23.0039 11.6687 23.7318 12.4349L24.3181 13.0522L23.5139 14.1858C23.0303 14.8675 22.7097 15.4019 22.7097 15.5262C22.7097 15.792 23.068 16.1512 23.3331 16.1512C23.6482 16.1512 23.8837 15.9137 24.6621 14.8113L25.3796 13.7951L25.7267 13.9886C25.9175 14.0951 26.4378 14.3085 26.8828 14.463C27.6784 14.7393 27.7167 14.7439 29.1823 14.7439C30.6464 14.7439 30.687 14.7389 31.4818 14.4639C32.757 14.0227 33.4493 13.5875 34.42 12.6168C35.3907 11.6461 35.8259 10.9537 36.2671 9.67856C36.5427 8.88226 36.5471 8.84598 36.5448 7.37908C36.5427 5.97393 36.5288 5.84729 36.3017 5.16477C35.847 3.79811 35.3026 2.93964 34.2653 1.95444C33.468 1.19706 32.5386 0.643227 31.4818 0.29575C30.7454 0.0536236 30.5579 0.0273924 29.3952 0.00405694C28.6926 -0.0100806 27.9479 0.0139363 27.7403 0.0573709ZM9.72189 1.46916C11.6858 2.0115 13.2619 3.51757 13.9209 5.48175C14.1187 6.07144 14.1436 6.27984 14.1468 7.37908C14.1503 8.51902 14.1321 8.66636 13.9114 9.29531C12.9297 12.0922 10.3472 13.7617 7.40836 13.4991C5.0617 13.2894 2.9707 11.5764 2.17279 9.21014C1.99666 8.68765 1.97196 8.45617 1.97324 7.3365C1.9746 6.08013 1.97954 6.04632 2.27328 5.29252C2.9874 3.45958 4.32331 2.15237 6.1054 1.543C7.27456 1.14324 8.45436 1.11913 9.72189 1.46916ZM30.0358 1.28282C30.6283 1.34133 31.6083 1.67186 32.2103 2.01627C34.1667 3.13561 35.3142 5.13547 35.3142 7.42575C35.3142 11.6564 31.0292 14.6369 27.0822 13.1517C26.145 12.799 25.4611 12.3556 24.7783 11.6577C24.1409 11.0063 23.7262 10.3441 23.3662 9.40271C23.1072 8.72564 23.0972 8.65103 23.0979 7.42166C23.0985 6.26988 23.1205 6.07902 23.3217 5.48175C23.9534 3.60623 25.4404 2.12264 27.285 1.52801C27.9081 1.32711 29.0161 1.1618 29.3952 1.21324C29.4889 1.22593 29.7772 1.25727 30.0358 1.28282ZM6.46446 4.23373C6.06078 4.43702 5.70887 4.81295 5.53581 5.22592C5.44852 5.4344 5.42101 6.08831 5.42101 7.95931C5.42101 10.7149 5.41778 10.7005 6.03199 10.7005C6.55781 10.7005 6.61333 10.5555 6.61333 9.18213V7.97524H8.06115H9.50897V9.19694C9.50897 10.5758 9.55965 10.7005 10.12 10.7005C10.7107 10.7005 10.7116 10.6959 10.6837 7.83037L10.6587 5.27966L10.4237 4.92485C10.2945 4.72974 10.0293 4.46436 9.83422 4.33517C9.49032 4.10726 9.43948 4.09943 8.15296 4.07592C6.93926 4.05361 6.79542 4.06706 6.46446 4.23373ZM26.6871 4.20895C26.5564 4.35339 26.5421 4.66536 26.5421 7.3939C26.5421 10.2516 26.551 10.4267 26.703 10.5643C26.8465 10.6942 27.0663 10.7071 28.7323 10.6839L30.6006 10.658L30.9553 10.423C31.5365 10.038 31.7749 9.59356 31.8077 8.83312C31.8318 8.27306 31.8069 8.13484 31.6185 7.78362L31.4014 7.37908L31.6185 6.97454C31.8069 6.62332 31.8318 6.48509 31.8077 5.92504C31.7749 5.1646 31.5365 4.72012 30.9553 4.33517L30.6006 4.10019L28.7163 4.07447C26.9617 4.05054 26.822 4.05982 26.6871 4.20895ZM9.21992 5.51838C9.39025 5.68862 9.44808 5.85018 9.48521 6.25949L9.53265 6.78292H8.06115H6.58966L6.63675 6.26392C6.68709 5.70906 6.89361 5.38117 7.24135 5.30401C7.34091 5.28196 7.77789 5.27208 8.21232 5.28221C8.93342 5.29899 9.02114 5.31951 9.21992 5.51838ZM30.3253 5.49896C30.4836 5.64774 30.5449 5.79235 30.5449 6.01643C30.5449 6.2405 30.4836 6.38511 30.3253 6.53389C30.1183 6.72841 30.0373 6.74204 28.9201 6.7698L27.7345 6.79927V6.01643V5.23358L28.9201 5.26305C30.0373 5.29081 30.1183 5.30444 30.3253 5.49896ZM30.3253 8.22427C30.4836 8.37305 30.5449 8.51766 30.5449 8.74173C30.5449 8.9658 30.4836 9.11042 30.3253 9.2592C30.1183 9.45372 30.0373 9.46735 28.9201 9.49511L27.7345 9.52458V8.74173V7.95889L28.9201 7.98836C30.0373 8.01612 30.1183 8.02975 30.3253 8.22427ZM17.1944 16.4878C15.9719 16.8181 15.1304 17.3282 14.283 18.2531C13.3272 19.2962 12.834 20.6104 12.8317 22.1204C12.8292 23.7436 13.3454 25.0073 14.489 26.1777L15.1738 26.8786L14.7473 26.9653C14.5127 27.013 13.7105 27.1663 12.9646 27.3058C11.3306 27.6116 10.9519 27.733 10.4243 28.12C9.9285 28.4838 9.56987 28.9662 9.34137 29.577C9.17487 30.0221 9.16831 30.2223 9.16831 34.8777C9.16831 39.4565 9.17665 39.7233 9.32408 39.8567C9.53188 40.0447 10.0414 40.0389 10.2156 39.8463C10.3371 39.7121 10.3553 39.1707 10.3778 35.0132C10.4024 30.4765 10.4087 30.3194 10.5806 29.948C10.7703 29.5385 11.2584 29.0552 11.6263 28.9128C11.7499 28.8651 12.9433 28.6152 14.2783 28.3576C16.6865 27.893 16.7191 27.8892 18.4514 27.8719L20.1973 27.8545L22.7948 28.3396C24.2235 28.6064 25.4936 28.8641 25.6172 28.9122C25.9857 29.0557 26.4734 29.5389 26.6628 29.948C26.8347 30.3194 26.841 30.4765 26.8656 35.0132C26.894 40.24 26.8642 39.9976 27.479 39.9976C28.1129 39.9976 28.082 40.2789 28.0559 34.7491L28.0325 29.8164L27.7526 29.248C27.4438 28.6208 26.9334 28.1113 26.3129 27.811C26.1013 27.7086 25.252 27.4942 24.4254 27.3346C23.5989 27.1751 22.7307 27.0072 22.4962 26.9615L22.0697 26.8786L22.7545 26.1777C23.898 25.0073 24.4143 23.7436 24.4117 22.1204C24.4102 21.0973 24.2471 20.3897 23.8077 19.4995C23.1554 18.1776 21.8684 17.0649 20.4639 16.6084C19.5094 16.2982 18.0903 16.2459 17.1944 16.4878ZM20.1052 17.8462C21.3644 18.2942 22.4379 19.3645 22.8932 20.6257C23.1179 21.2481 23.1935 22.4027 23.0537 23.0761C22.8953 23.8391 22.4113 24.714 21.8234 25.3001C20.0258 27.0921 17.2164 27.0949 15.428 25.3065C12.9437 22.8221 14.0945 18.6944 17.542 17.7237C18.1588 17.55 19.4457 17.6115 20.1052 17.8462ZM13.007 33.4939C12.8361 33.7112 12.8304 33.8126 12.8304 36.6876C12.8304 39.5434 12.8369 39.6634 13.0008 39.8273C13.1135 39.94 13.2846 39.9976 13.5069 39.9976C14.1128 39.9976 14.1079 40.0249 14.1079 36.6146C14.1079 33.7237 14.1015 33.6037 13.9376 33.4398C13.684 33.1862 13.2282 33.2127 13.007 33.4939ZM23.3058 33.4398C23.142 33.6037 23.1355 33.7237 23.1355 36.6146C23.1355 40.0249 23.1307 39.9976 23.7365 39.9976C23.9588 39.9976 24.1299 39.94 24.2427 39.8273C24.4065 39.6634 24.413 39.5434 24.413 36.6876C24.413 33.8126 24.4074 33.7112 24.2364 33.4939C24.0153 33.2127 23.5595 33.1862 23.3058 33.4398Z" fill="#50BCEB"/>
</svg>
