<svg width="38" height="40" viewBox="0 0 38 40" fill="none" xmlns="http://www.w3.org/2000/svg">
<path fill-rule="evenodd" clip-rule="evenodd" d="M11.3617 3.88514C7.50433 6.02067 4.29248 7.83957 4.22421 7.92719C4.03953 8.16406 4.12649 13.724 4.33465 14.9887C4.88254 18.3166 5.83823 21.0924 7.3593 23.774C8.16658 25.1972 8.46021 25.5263 8.92235 25.5263C9.39374 25.5263 9.72524 25.192 9.72524 24.7166C9.72524 24.4495 9.57974 24.1272 9.11433 23.3636C7.60841 20.8928 6.60681 18.1564 6.06995 15.0465C5.91136 14.1274 5.86021 13.3655 5.82551 11.406L5.78175 8.92796L12.1218 5.42463C15.6088 3.49772 18.5289 1.9212 18.611 1.9212C18.693 1.9212 21.6124 3.49772 25.0985 5.42463L31.4367 8.92796L31.3917 11.3593C31.3621 12.9526 31.2932 14.129 31.1917 14.7725C30.6978 17.9034 29.6532 20.812 28.098 23.3863C27.4455 24.4665 27.3511 24.8634 27.6571 25.2413C27.7592 25.3674 27.9705 25.4646 28.2137 25.4971C28.557 25.5433 28.639 25.5164 28.8741 25.2809C29.2272 24.9272 30.1029 23.4306 30.7192 22.1273C31.6452 20.1693 32.1868 18.5123 32.6344 16.2686C33.0112 14.3791 33.1032 13.2387 33.1032 10.4546C33.1032 8.26973 33.0875 8.02398 32.938 7.87595C32.6437 7.58457 18.831 -0.00252419 18.5992 6.30014e-07C18.476 0.0013098 15.2191 1.74961 11.3617 3.88514ZM20.1664 15.5071L16.1283 19.5413L14.6848 18.0956C13.891 17.3005 13.1244 16.6015 12.9813 16.5423C12.423 16.3109 11.876 16.7037 11.876 17.3358C11.876 17.7021 11.9328 17.7699 13.8188 19.656C15.6931 21.5302 15.7748 21.5988 16.1322 21.5988C16.4963 21.5988 16.5792 21.5222 20.9222 17.1793C25.3249 12.7766 25.3417 12.7583 25.3417 12.3738C25.3417 11.8541 25.1176 11.5954 24.6085 11.5271L24.2045 11.4729L20.1664 15.5071ZM5.20141 24.6988C5.10482 24.7549 4.71983 25.441 4.34587 26.2236L3.66586 27.6463L2.09009 27.8657C0.641492 28.0673 0.493556 28.1058 0.257158 28.3414C0.0822905 28.5158 0 28.6948 0 28.9009C0 29.1637 0.157381 29.363 1.18395 30.4005L2.36791 31.5971L2.1173 33.1204C1.97946 33.9582 1.86753 34.7193 1.86846 34.8116C1.86949 34.904 1.97357 35.0828 2.09981 35.209C2.49247 35.6018 2.84903 35.5266 4.38449 34.7271L5.75098 34.0157L7.08727 34.7271C8.59431 35.5296 8.97069 35.6099 9.34689 35.2094C9.6207 34.918 9.61537 34.5861 9.30986 32.8933L9.07833 31.6103L10.2437 30.462C11.3765 29.3457 11.4091 29.3023 11.4087 28.9119C11.4083 28.2105 11.2365 28.1205 9.41235 27.8661L7.84116 27.647L7.18387 26.3295C6.38827 24.7349 6.26941 24.5903 5.75809 24.594C5.54844 24.5956 5.29792 24.6428 5.20141 24.6988ZM30.8439 24.8527C30.7236 24.9965 30.3516 25.6831 30.0173 26.3787L29.4095 27.6432L27.8198 27.867C25.9769 28.1264 25.8099 28.2131 25.8084 28.9119C25.8074 29.3029 25.8383 29.3439 26.974 30.4568L28.1405 31.6002L27.9051 32.9349C27.6028 34.6489 27.5988 34.9198 27.8718 35.2103C28.2472 35.61 28.6244 35.5291 30.1305 34.7261L31.4668 34.0137L32.8353 34.7261C34.3719 35.5261 34.726 35.601 35.1179 35.209C35.4043 34.9228 35.4038 34.8737 35.0974 33.0756L34.846 31.601L36.0319 30.4025C37.0603 29.3632 37.2178 29.1638 37.2178 28.9009C37.2178 28.6946 37.1356 28.5162 36.9606 28.3423C36.7252 28.1083 36.5705 28.0677 35.1356 27.8637L33.5678 27.6407L32.8781 26.2182C32.4724 25.3812 32.1099 24.7536 31.9974 24.6935C31.8923 24.6372 31.639 24.5912 31.4345 24.5912C31.1418 24.5912 31.016 24.6468 30.8439 24.8527ZM18.16 26.5777C18.0084 26.6506 17.6826 27.2207 17.0561 28.509C16.5673 29.5143 16.1488 30.3554 16.126 30.3782C16.1032 30.4009 15.1544 30.5575 14.0173 30.7259C12.5325 30.9459 11.9005 31.077 11.7746 31.191C11.5498 31.3943 11.454 31.9013 11.5916 32.1584C11.6503 32.2681 12.3472 32.9984 13.1403 33.7813L14.5823 35.2048L14.2584 37.0283C13.9098 38.9911 13.876 39.424 14.0532 39.6548C14.2393 39.8972 14.5934 40.0429 14.8647 39.9887C15.0044 39.9607 15.8808 39.5357 16.8123 39.0441C17.7438 38.5526 18.5547 38.1504 18.6142 38.1504C18.6737 38.1504 19.4818 38.5525 20.4099 39.044C21.338 39.5354 22.212 39.9605 22.3522 39.9885C22.6242 40.0429 22.9782 39.8975 23.1646 39.6548C23.3418 39.424 23.3079 38.9911 22.9593 37.0283L22.6354 35.2048L24.0775 33.7813C24.8705 32.9984 25.5675 32.2681 25.6262 32.1584C25.7655 31.8979 25.6669 31.3935 25.4356 31.1842C25.2997 31.0611 24.7238 30.9416 23.1924 30.7185C22.0592 30.5534 21.115 30.4013 21.0942 30.3803C21.0735 30.3593 20.6609 29.5214 20.1775 28.5183C19.4684 27.0471 19.2492 26.6719 19.0429 26.578C18.7357 26.438 18.4503 26.4379 18.16 26.5777ZM6.66721 29.0542C6.74025 29.1272 7.25381 29.2575 7.80862 29.3438L8.81733 29.5006L8.18314 30.0574C7.31712 30.8177 7.24493 31.0148 7.44121 32.0828C7.52621 32.5453 7.57372 32.9457 7.54688 32.9726C7.51995 32.9994 7.18901 32.8548 6.8115 32.6511C5.80195 32.1065 5.76772 32.1054 4.77612 32.5881C4.3023 32.8187 3.90281 33.0073 3.88832 33.0073C3.87383 33.0073 3.91656 32.7022 3.98333 32.3293C4.21262 31.0486 4.20542 31.0219 3.40916 30.2037L2.7039 29.479L3.6047 29.3598C4.71852 29.2123 4.88422 29.0889 5.37609 28.0407L5.73845 27.2686L6.13653 28.0951C6.35545 28.5497 6.59428 28.9813 6.66721 29.0542ZM31.8739 28.0798C32.3435 29.0962 32.5021 29.2127 33.6183 29.3604L34.5139 29.479L33.8086 30.2037C33.0123 31.0219 33.0051 31.0486 33.2344 32.3293C33.3012 32.7022 33.3439 33.0073 33.3294 33.0073C33.3149 33.0073 32.9155 32.8187 32.4416 32.5881C31.4498 32.1053 31.4164 32.1064 30.409 32.6546C30.0329 32.8593 29.7019 33.0036 29.6736 32.9752C29.6452 32.9469 29.6915 32.5453 29.7765 32.0828C29.9728 31.0148 29.9006 30.8177 29.0346 30.0574L28.4004 29.5006L29.4188 29.3423C30.5965 29.1592 30.5982 29.1579 31.1128 28.0321C31.2961 27.6311 31.4615 27.3031 31.4806 27.3031C31.4996 27.3031 31.6766 27.6526 31.8739 28.0798ZM19.9915 31.8227C20.1298 31.9461 20.5576 32.0474 21.5236 32.1853C22.2606 32.2905 22.8826 32.3937 22.9058 32.4145C22.9288 32.4354 22.5018 32.9034 21.9566 33.4545C21.4114 34.0057 20.9406 34.5412 20.9102 34.6444C20.8798 34.7475 20.9598 35.4187 21.0879 36.1357C21.2159 36.8528 21.3207 37.4738 21.3207 37.5158C21.3207 37.5578 20.7596 37.297 20.0738 36.9362C19.388 36.5754 18.7289 36.2802 18.6089 36.2802C18.4889 36.2802 17.8297 36.5754 17.1439 36.9362C16.4581 37.297 15.897 37.5578 15.897 37.5158C15.897 37.4738 16.0019 36.8528 16.1299 36.1357C16.258 35.4187 16.3379 34.7475 16.3075 34.6444C16.2772 34.5412 15.8063 34.0057 15.2611 33.4545C14.716 32.9034 14.2889 32.4354 14.312 32.4145C14.3352 32.3937 14.9571 32.2905 15.6942 32.1853C16.6624 32.047 17.0871 31.9464 17.2243 31.8227C17.3289 31.7284 17.6847 31.1124 18.0149 30.4538L18.6154 29.2563L19.2075 30.4538C19.5332 31.1124 19.8861 31.7284 19.9915 31.8227Z" fill="#EA78A1"/>
</svg>
