<svg xmlns="http://www.w3.org/2000/svg" width="139" height="36" viewBox="0 0 139 36" fill="none">
  <path d="M13.2661 0.951873C12.3856 0.734536 11.4806 0.628713 10.5731 0.636942C9.18523 0.608139 7.8066 0.865491 6.52535 1.39254C5.2441 1.9196 4.08845 2.70475 3.13234 3.69775C2.13088 4.63813 1.33607 5.77166 0.797296 7.02792C0.258524 8.28418 -0.012702 9.63633 0.000456865 11.0004V23.903H2.59374V11.0004C2.55851 9.95203 2.75227 8.90846 3.16186 7.94051C3.57146 6.97257 4.18729 6.10291 4.96758 5.39055C5.69251 4.64229 6.55987 4.04243 7.52001 3.62531C8.48015 3.20818 9.51423 2.98196 10.5631 2.95961C11.4057 2.99649 12.2402 3.13869 13.0466 3.38281L13.5852 3.59933V1.06013L13.2661 0.951873Z" fill="#32C0CC"/>
  <path d="M51.8651 1.52148V14.0993C51.8803 15.145 51.6774 16.1826 51.2691 17.1477C50.8607 18.1128 50.2555 18.9846 49.4912 19.7092C48.7548 20.4673 47.8661 21.0655 46.882 21.4654C45.8979 21.8653 44.84 22.0583 43.7761 22.0318C42.9334 21.995 42.0989 21.8528 41.2925 21.6087L40.7539 21.5102V24.0494L41.0731 24.1478C41.9545 24.3603 42.8588 24.4661 43.7661 24.4628H43.9257C45.2997 24.4563 46.659 24.1829 47.9259 23.6581C49.1928 23.1333 50.3425 22.3674 51.3095 21.4042C52.2764 20.4409 53.0416 19.2992 53.5614 18.0441C54.0811 16.7891 54.3452 15.4453 54.3387 14.0895V1.52148H51.8651Z" fill="#32C0CC"/>
  <path d="M76.9121 1.52148V14.4241C76.9267 15.4697 76.7236 16.5072 76.3152 17.4721C75.9069 18.4371 75.3021 19.3091 74.5382 20.034C73.7992 20.7887 72.91 21.3846 71.9265 21.7843C70.943 22.184 69.8865 22.3788 68.8231 22.3566C67.7605 22.373 66.7057 22.1755 65.723 21.7761C64.7404 21.3768 63.8506 20.784 63.1079 20.034C62.3276 19.3216 61.7117 18.4519 61.3022 17.484C60.8926 16.516 60.6988 15.4725 60.734 14.4241V1.52148H58.2505V14.4241C58.2372 15.8028 58.508 17.1697 59.0463 18.4419C59.5847 19.7142 60.3795 20.8652 61.3823 21.8252C62.3745 22.801 63.5523 23.5737 64.848 24.099C66.1438 24.6243 67.532 24.8917 68.9328 24.886C70.3038 24.9106 71.6648 24.6508 72.9276 24.1236C74.1905 23.5963 75.327 22.8133 76.2638 21.8252C77.2553 20.8567 78.0425 19.7041 78.5801 18.4338C79.1176 17.1635 79.3948 15.8007 79.3957 14.4241V1.52148H76.9121Z" fill="#32C0CC"/>
  <path d="M94.5946 27.6074C93.2979 29.4085 91.2533 32.6858 92.2307 34.1621C92.4075 34.4658 92.6432 34.7322 92.9244 34.9461C93.2056 35.1599 93.5266 35.317 93.8693 35.4084C94.212 35.4998 94.5696 35.5237 94.9217 35.4787C95.2737 35.4337 95.6133 35.3208 95.9211 35.1463C96.3562 34.9206 96.7189 34.5798 96.9684 34.1621C97.9459 32.6858 96.0009 29.3002 94.5946 27.6074Z" fill="#32C0CC"/>
  <path d="M104.519 1.2832L97.6465 14.1071L90.8242 1.48988H88.0215L96.2202 16.7742L97.6266 19.4217L107.321 1.2832H104.519Z" fill="#32C0CC"/>
  <path d="M94.3864 19.2328L84.7812 1.27148H81.9785L94.6058 25.069L96.1119 22.3232L94.3864 19.2328Z" fill="#32C0CC"/>
  <path d="M36.0275 16.8216C35.3108 18.3836 34.1501 19.7067 32.6862 20.6304C31.086 21.6736 29.2081 22.2251 27.2902 22.2149C26.0524 22.2451 24.8214 22.0259 23.6724 21.5707C22.5234 21.1155 21.4805 20.4339 20.6075 19.5675C18.9068 17.9814 17.8441 15.8423 17.6153 13.5443H39.6182V12.5601C39.6267 12.1701 39.5899 11.7805 39.5085 11.3988C39.2496 8.46356 37.8612 5.73768 35.6286 3.78121C33.3721 1.71466 30.3986 0.580464 27.3201 0.612141C25.6927 0.593303 24.0786 0.902156 22.5763 1.51981C21.074 2.13746 19.7151 3.05093 18.5828 4.2044C17.4261 5.31453 16.5131 6.64749 15.9006 8.12047C15.288 9.59344 14.989 11.175 15.022 12.7668C15.0167 14.3607 15.3301 15.9401 15.944 17.4144C16.5579 18.8888 17.4605 20.2292 18.5999 21.359C19.7394 22.4889 21.0935 23.386 22.5846 23.9989C24.0758 24.6119 25.6748 24.9287 27.2902 24.9313C29.8408 24.9491 32.3323 24.1744 34.4117 22.7169C36.4063 21.3109 37.9419 19.3613 38.8303 17.107L36.0275 16.8216ZM20.7073 5.50353C22.498 3.87976 24.8591 3.00785 27.2902 3.0726C29.7134 3.05321 32.0582 3.9191 33.8731 5.50353C35.5655 6.98322 36.6745 9.0046 37.005 11.2118H17.5854C17.9165 9.00702 19.0213 6.98686 20.7073 5.50353Z" fill="#32C0CC"/>
  <path d="M128.667 16.8215C127.947 18.3848 126.783 19.708 125.315 20.6303C123.719 21.6733 121.844 22.2248 119.929 22.2148C118.69 22.2441 117.458 22.0244 116.307 21.5693C115.157 21.1142 114.112 20.4331 113.237 19.5674C111.539 17.9786 110.478 15.841 110.244 13.5442H132.257V12.56C132.261 12.1702 132.224 11.7811 132.148 11.3987C131.887 8.43294 130.501 5.67359 128.268 3.67284C125.92 1.5604 122.835 0.424986 119.658 0.50385C116.482 0.582713 113.459 1.86974 111.222 4.09604C110.063 5.20473 109.149 6.53744 108.536 8.01075C107.924 9.48406 107.626 11.0663 107.661 12.6584C107.657 14.252 107.971 15.8308 108.586 17.3045C109.2 18.7783 110.103 20.1182 111.242 21.2478C112.381 22.3774 113.735 23.2745 115.225 23.8879C116.716 24.5013 118.314 24.8191 119.929 24.8229C122.48 24.8326 124.97 24.0549 127.051 22.5987C129.045 21.1927 130.581 19.2431 131.469 16.9888L128.667 16.8215ZM113.237 5.50342C115.026 3.87785 117.388 3.00566 119.819 3.07249C122.243 3.05311 124.588 3.91899 126.402 5.50342C128.087 6.9889 129.195 9.00744 129.534 11.2117H110.115C110.451 9.00423 111.563 6.98371 113.257 5.50342H113.237Z" fill="#32C0CC"/>
  <path d="M133.755 1.80294H132.758V1.27148H135.351V1.69468H134.354V4.23387H133.815V1.80294H133.755Z" fill="#32C0CC"/>
  <path d="M138.501 4.23575V2.33629L137.503 3.92082H137.294L136.296 2.33629V4.23575H135.758V1.2832H136.187L137.374 3.19252L138.561 1.2832H138.999V4.23575H138.501Z" fill="#32C0CC"/>
</svg>