<svg width="37" height="40" viewBox="0 0 37 40" fill="none" xmlns="http://www.w3.org/2000/svg">
<g id="Select">
<path id="image 17 (Traced)" fill-rule="evenodd" clip-rule="evenodd" d="M2.02022 0.118832C1.5081 0.276727 0.858158 0.76096 0.532211 1.22746C-0.00991422 2.00342 -0.0178832 2.07287 0.00766439 5.78697L0.0303995 9.10066L0.234312 9.53036C0.550024 10.1956 1.00824 10.6557 1.69139 10.9935L2.2875 11.2882L5.33876 11.3135C7.44093 11.3308 8.53502 11.3103 8.8562 11.2476C9.83912 11.0556 10.5991 10.4615 11.0328 9.54606L11.2807 9.02253V5.62399V2.22546L11.0701 1.77599C10.7922 1.18308 10.1582 0.522515 9.60974 0.254539C9.19895 0.0538297 9.09402 0.0385949 7.94751 0.0128129C6.79161 -0.0131254 6.71474 -0.00562516 6.56075 0.148364C6.35301 0.356104 6.34332 0.803774 6.54231 1.00276C6.66309 1.12355 6.85357 1.1541 7.69828 1.18832C8.50784 1.22121 8.7723 1.26137 9.02394 1.38973C9.43818 1.60106 9.88272 2.10202 9.986 2.47382C10.1156 2.94063 10.0916 8.47345 9.95827 8.8469C9.79764 9.29699 9.48661 9.65208 9.07574 9.85443C8.70292 10.038 8.69909 10.0382 5.61033 10.0382H2.51813L2.13609 9.80193C1.92592 9.672 1.64748 9.41418 1.51724 9.22894L1.28044 8.89206L1.25833 5.76017L1.23614 2.62828L1.43997 2.21171C1.81686 1.44153 2.44719 1.17074 3.86364 1.17074C4.55475 1.17074 4.59725 1.16089 4.7514 0.964872C4.84046 0.851666 4.91336 0.680645 4.91336 0.584783C4.91336 0.488921 4.84046 0.3179 4.7514 0.204693C4.58967 -0.000937534 4.58819 -0.00117191 3.48183 0.004297C2.76946 0.0077346 2.24789 0.0486733 2.02022 0.118832ZM14.5146 0.18149C13.7531 0.496968 13.2831 0.925809 12.9255 1.63153C12.596 2.28163 12.5559 2.79516 12.5859 5.98275C12.6133 8.88464 12.6176 8.95386 12.7995 9.41317C13.0558 10.06 13.8337 10.839 14.4839 11.1L14.9527 11.2882H18.2731H21.5935L22.0623 11.1C22.7125 10.839 23.4905 10.06 23.7467 9.41317C23.9287 8.95386 23.933 8.88464 23.9603 5.98275C23.9791 3.98465 23.959 2.85376 23.8985 2.50648C23.7238 1.50293 23.094 0.668067 22.1932 0.24571L21.7498 0.0378917L18.3512 0.0189849L14.9527 0L14.5146 0.18149ZM27.2006 0.150004C26.9757 0.231804 26.6923 0.369542 26.5707 0.456107C26.1749 0.73799 25.6858 1.32902 25.4733 1.78208L25.2655 2.22546V5.62399V9.02253L25.5135 9.54606C25.948 10.4631 26.7058 11.0545 27.6961 11.2494C27.9557 11.3005 28.5466 11.3301 29.0091 11.3153C29.782 11.2904 29.8621 11.2733 29.9992 11.1038C30.2064 10.8477 30.1921 10.458 29.9677 10.2471C29.8045 10.0938 29.7024 10.0772 28.9227 10.0772C27.6217 10.0772 27.0654 9.82209 26.6799 9.04847L26.4765 8.64025L26.477 5.70634C26.4772 3.87894 26.5086 2.65977 26.5602 2.47382C26.6626 2.1053 27.1031 1.60622 27.5259 1.37996C27.8366 1.21363 27.9114 1.2098 30.8516 1.2098C34.0785 1.2098 34.1103 1.21324 34.6584 1.62302C34.797 1.72661 35.0006 1.99592 35.111 2.22147L35.3117 2.63156L35.2888 5.76189L35.2658 8.89214L35.029 9.22894C34.8988 9.41418 34.6213 9.67138 34.4125 9.80044C34.0521 10.0233 33.9794 10.0373 32.982 10.0758C31.9814 10.1144 31.9238 10.1255 31.7747 10.3098C31.6587 10.4534 31.6295 10.573 31.662 10.7732C31.741 11.2602 31.8196 11.2882 33.1051 11.2882H34.2585L34.8547 10.9935C35.538 10.6557 35.9962 10.1957 36.3119 9.53036L36.5158 9.10066V5.62399V2.14733L36.2869 1.68028C35.9952 1.08534 35.47 0.560095 34.8742 0.267586L34.4064 0.0378917L31.0079 0.0195318C27.8353 0.00242195 27.5821 0.0110941 27.2006 0.150004ZM21.5545 1.33496C21.9573 1.51856 22.3199 1.85099 22.515 2.21577C22.6843 2.53242 22.6873 2.59133 22.6873 5.62399C22.6873 8.63689 22.6833 8.71744 22.5187 9.02253C22.3214 9.38817 22.0153 9.68872 21.6326 9.89256C21.3791 10.0276 21.1343 10.0382 18.2731 10.0382C15.4119 10.0382 15.1672 10.0276 14.9136 9.89256C14.5309 9.68872 14.2249 9.38817 14.0275 9.02253C13.8629 8.71744 13.8589 8.63689 13.8589 5.62399C13.8589 2.6139 13.8631 2.53031 14.0271 2.22546C14.3052 1.70872 14.7587 1.36574 15.3137 1.25246C15.5019 1.2141 16.9215 1.18886 18.4684 1.19644C20.8565 1.20816 21.3223 1.2291 21.5545 1.33496ZM7.17905 3.88105C7.11459 3.90394 6.61512 4.36497 6.06909 4.90561L5.07625 5.88853L4.59999 5.43422C4.15724 5.01194 4.10372 4.98312 3.84028 5.02585C3.48113 5.08413 3.35753 5.20929 3.29823 5.57516C3.2519 5.86056 3.26799 5.88416 4.02778 6.64395C5.12078 7.73695 4.9889 7.76421 6.6627 6.09846C7.90508 4.8621 7.99157 4.75717 7.99157 4.48677C7.99157 4.04199 7.58304 3.73745 7.17905 3.88105ZM14.4584 12.6886C13.8124 12.8991 13.307 13.3692 13.024 14.0227C12.9462 14.2022 12.9169 15.1903 12.8985 18.2466L12.8745 22.2362L12.4214 22.1255C11.3164 21.8556 10.1443 22.5549 9.83483 23.6687C9.79264 23.8205 9.75795 24.6232 9.75772 25.4523C9.75725 26.949 9.75865 26.9613 9.94905 27.1516C10.2027 27.4053 10.5618 27.4053 10.8155 27.1516C11.0049 26.9621 11.0073 26.9428 11.0073 25.5475C11.0073 24.0231 11.0655 23.7255 11.4068 23.5044C11.8661 23.2069 12.3801 23.2884 12.713 23.7116C12.8768 23.9198 12.8823 23.9928 12.8823 25.9529V27.9788L12.687 28.2349C12.377 28.6413 12.4307 29.0644 12.8176 29.2645C13.1231 29.4224 13.3158 29.3521 13.7613 28.9201L14.1324 28.5602L14.1328 21.7212C14.1331 17.3695 14.1619 14.779 14.2119 14.5987C14.455 13.7238 15.5285 13.5885 15.9332 14.3819C16.0804 14.6704 16.0856 14.8868 16.0856 20.7812V26.8817L16.2774 27.0735C16.5753 27.3714 17.075 27.2829 17.2489 26.9014C17.3083 26.7711 17.3356 25.6249 17.3356 23.2679V19.8248L17.649 19.5114C17.9438 19.2165 17.9837 19.2004 18.3226 19.2386C18.5891 19.2687 18.7463 19.3428 18.9272 19.5235L19.1716 19.7678L19.2106 23.3017C19.2321 25.2453 19.2809 26.8998 19.3189 26.9783C19.4735 27.2967 19.9936 27.3489 20.2689 27.0735L20.4607 26.8817V24.2584C20.4607 21.3503 20.4787 21.2263 20.9443 20.9345C21.4605 20.6111 22.1599 20.9241 22.3358 21.5575C22.3793 21.7143 22.4132 22.948 22.4134 24.3884L22.4139 26.9414L22.6197 27.1033C22.8904 27.3163 23.1367 27.308 23.4056 27.0769L23.6248 26.8884L23.6639 24.9344C23.7027 22.9952 23.7045 22.9789 23.8936 22.7777C23.9984 22.6662 24.2156 22.5357 24.3762 22.4875C24.6241 22.4132 24.712 22.4228 24.9596 22.5514C25.12 22.6346 25.3168 22.8239 25.3969 22.9722C25.5354 23.2283 25.5415 23.4856 25.5208 28.1637L25.4989 33.0857L25.1573 34.3748C24.8195 35.6496 24.8153 35.6816 24.7777 37.246L24.7397 38.8281H19.0517H13.3638L13.3346 37.4413C13.2991 35.7514 13.32 35.8067 12.0844 34.1405C11.5905 33.4744 11.146 32.8099 11.0968 32.6639C11.0411 32.4987 11.0073 31.796 11.0073 30.8048C11.0073 29.2171 11.0066 29.2106 10.8155 29.0196C10.5618 28.7658 10.2027 28.7658 9.94905 29.0196C9.75733 29.2112 9.75725 29.2121 9.75725 30.8864C9.75725 33.1334 9.77147 33.1786 10.9991 34.8326C11.5082 35.5184 11.9643 36.1934 12.0129 36.3326C12.0665 36.4867 12.1011 37.173 12.1011 38.087C12.1011 39.4875 12.1119 39.6021 12.263 39.7941L12.4249 40H19.048H25.671L25.8198 39.8358C25.9547 39.6871 25.9729 39.494 26.0133 37.7849L26.058 35.8983L26.4022 34.6092L26.7464 33.3201L26.7482 28.0802L26.7499 22.8402L26.5148 22.3803C26.0872 21.5441 25.1684 21.0675 24.2889 21.2258C24.0526 21.2683 23.8052 21.327 23.7392 21.3563C23.6475 21.397 23.598 21.3305 23.5294 21.074C23.238 19.9839 21.8587 19.259 20.7875 19.6327C20.4792 19.7403 20.4462 19.7393 20.4048 19.621C20.1689 18.9476 19.7744 18.4534 19.255 18.1804C19.0094 18.0513 18.7952 18.0126 18.3122 18.0103C17.9684 18.0086 17.6108 18.0351 17.5174 18.0691L17.3477 18.1311L17.3221 16.1941C17.2986 14.4154 17.2829 14.2278 17.1307 13.8985C16.6727 12.9083 15.4637 12.3609 14.4584 12.6886Z" fill="#4BD99C"/>
</g>
</svg>
