<svg width="39" height="40" viewBox="0 0 39 40" fill="none" xmlns="http://www.w3.org/2000/svg">
<g id="image 20 (Traced)">
<path id="image 20 (Traced)_2" fill-rule="evenodd" clip-rule="evenodd" d="M4.3411 0.210794C4.21956 0.365306 4.17917 0.529583 4.17917 0.870009V1.32331L3.80812 1.37112C2.11357 1.58937 0.790996 2.64705 0.202944 4.25428L0 4.80905V18.2058C0 28.9008 0.02031 31.6791 0.100847 31.9819C0.471192 33.3748 1.4981 34.4865 2.8823 34.993L3.43707 35.1959L11.3267 35.2207L19.2164 35.2454L19.6069 35.8015C20.173 36.6075 21.2648 37.6597 22.138 38.2411C23.938 39.4394 25.784 40 27.9297 40C32.8669 40 36.9918 36.636 38.0123 31.7771C38.229 30.7456 38.2502 28.9718 38.0583 27.9209C37.6945 25.9275 36.7529 24.0883 35.3495 22.63C34.6877 21.9425 33.8312 21.2522 33.1335 20.8442L32.7694 20.6312L32.7682 12.8764C32.767 4.28974 32.7841 4.60298 32.2583 3.60217C31.6222 2.3917 30.3875 1.56649 28.9222 1.37245L28.5511 1.32331V0.833998C28.5511 0.238681 28.368 0.00496038 27.9017 0.00496038C27.4514 0.00496038 27.3013 0.210091 27.3013 0.825171V1.33292H25.036H22.7706V0.838763C22.7706 0.238291 22.5889 0.00496038 22.1212 0.00496038C21.6709 0.00496038 21.5208 0.210091 21.5208 0.825171V1.33292H19.2554H16.9901V0.842591C16.9901 0.170565 16.8666 0.00496038 16.3652 0.00496038C15.8637 0.00496038 15.7402 0.170565 15.7402 0.842591V1.33292H13.4749H11.2095V0.798221C11.2095 0.156816 11.0931 0.00496038 10.601 0.00496038C10.1203 0.00496038 9.9597 0.213997 9.9597 0.839935V1.33292H7.74248H5.52533L5.49237 0.814704C5.46534 0.391241 5.42644 0.269928 5.27927 0.150724C5.00305 -0.0729206 4.541 -0.043393 4.3411 0.210794ZM4.19393 3.1791C4.22096 3.60256 4.25986 3.72387 4.40703 3.84308C4.58717 3.98892 4.91424 4.03157 5.1521 3.94033C5.35426 3.86276 5.50713 3.48164 5.50713 3.05536V2.66088H7.73342H9.9597V3.04779C9.9597 3.52195 10.073 3.78801 10.3235 3.90213C10.61 4.03266 10.788 4.00806 11.0236 3.80535C11.2026 3.65131 11.2425 3.5446 11.2717 3.14137L11.3064 2.66088H13.5233H15.7402V3.1209C15.7402 3.6706 15.8868 3.89518 16.287 3.95924C16.4945 3.99243 16.6123 3.9622 16.7753 3.83402C16.9698 3.68099 16.9901 3.61764 16.9901 3.16293V2.66088H19.2554H21.5208V3.11903C21.5208 3.72716 21.7104 3.98884 22.1514 3.98884C22.6223 3.98884 22.7706 3.79238 22.7706 3.16863V2.66088H25.036H27.3013V3.13309C27.3013 3.53038 27.3318 3.63584 27.4931 3.79707C27.7382 4.04227 28.1225 4.05188 28.3704 3.81902C28.5232 3.67544 28.5511 3.571 28.5511 3.1441V2.63909L28.9477 2.68611C29.4677 2.74767 30.0664 3.03115 30.5097 3.42555C30.89 3.76395 31.3119 4.47527 31.3998 4.92623C31.4291 5.0766 31.4704 5.26111 31.4916 5.33633C31.5281 5.46616 30.7721 5.47303 16.3995 5.47303H1.26891L1.32163 5.14104C1.43287 4.44066 1.95077 3.62639 2.56187 3.19121C2.8998 2.95061 3.63197 2.66486 3.91623 2.66276L4.16097 2.66088L4.19393 3.1791ZM31.5195 13.4101C31.5195 19.046 31.5027 20.0908 31.4124 20.0561C29.5506 19.3417 27.0277 19.2727 24.9441 19.8793C20.486 21.177 17.4024 25.5163 17.6402 30.1575C17.7062 31.4474 17.9621 32.6095 18.4359 33.7722C18.4898 33.9044 18.1488 33.9098 11.0038 33.8894L3.51519 33.868L3.08556 33.6648C2.44806 33.3636 1.88539 32.8163 1.58426 32.2046L1.32796 31.6841L1.30749 19.2034L1.28703 6.72288H16.4033H31.5195V13.4101ZM13.0735 9.21569L12.889 9.36497V12.1128V14.8607L13.0735 15.01C13.2482 15.1515 13.4228 15.1593 16.4072 15.1593H19.5566L19.7184 14.9535C19.875 14.7545 19.8804 14.6603 19.8804 12.0988V9.4498L19.6886 9.25811L19.4969 9.06634H16.3773C13.4223 9.06634 13.2481 9.07423 13.0735 9.21569ZM22.3594 9.16398C22.0993 9.36153 22.0676 9.6811 22.0676 12.1063C22.0676 14.5848 22.1046 14.9338 22.3831 15.0829C22.4695 15.1291 23.7589 15.1593 25.6421 15.1593H28.7582L28.9281 14.9786C29.0957 14.8002 29.098 14.7623 29.098 12.1019V9.40606L28.9172 9.23616C28.7378 9.06767 28.7124 9.06634 25.6122 9.06634C23.2335 9.06634 22.4573 9.08961 22.3594 9.16398ZM18.6305 12.1128V13.9095H16.4042H14.1779V12.1128V10.3162H16.4042H18.6305V12.1128ZM27.8481 12.1128V13.9095H25.6218H23.3955V12.1128V10.3162H25.6218H27.8481V12.1128ZM3.82414 17.4602L3.63236 17.6519V20.3071V22.9621L3.82085 23.1813L4.00943 23.4005H7.14755H10.2857L10.4771 23.1779L10.6685 22.9554L10.6461 20.2612L10.6237 17.5669L10.4393 17.4177C10.2646 17.2763 10.0898 17.2684 7.13537 17.2684H4.01583L3.82414 17.4602ZM13.1556 17.3686C12.8667 17.5904 12.85 17.755 12.85 20.3835V22.9621L13.0385 23.1813L13.227 23.4005H16.3652H19.5033L19.6919 23.1813L19.8804 22.9621V20.3071V17.6519L19.6886 17.4602L19.4969 17.2684L16.3882 17.2709C14.0678 17.2728 13.2482 17.2975 13.1556 17.3686ZM22.3397 17.4451C22.1724 17.589 22.1262 17.7108 22.0908 18.1013C22.0054 19.0426 22.2111 19.4557 22.7649 19.4557C23.1264 19.4557 23.3955 19.1845 23.3955 18.8202V18.5964H25.9226C28.5269 18.5964 28.8714 18.5613 29.0215 18.2809C29.1596 18.0227 29.1091 17.6631 28.9062 17.4602L28.7145 17.2684H25.6297H22.545L22.3397 17.4451ZM9.33478 20.354V22.1116H7.14755H4.96032V20.354V18.5964H7.14755H9.33478V20.354ZM18.6305 20.354V22.1116H16.4042H14.1779V20.354V18.5964H16.4042H18.6305V20.354ZM27.3013 21.345C27.3013 21.8137 27.3293 21.9361 27.4711 22.0871C27.6863 22.316 28.0678 22.3242 28.3453 22.1059C28.5352 21.9565 28.5511 21.8984 28.5511 21.3538V20.7635L28.9613 20.8161C29.664 20.9064 30.6446 21.1631 31.2518 21.416L31.8345 21.6585L31.5989 22.0703C31.2953 22.6011 31.2853 22.9763 31.5691 23.1995C31.9848 23.5265 32.3528 23.3874 32.7 22.7721C32.8323 22.5377 32.9588 22.3459 32.9811 22.3459C33.1886 22.3459 34.7457 23.825 35.1717 24.4268C35.3636 24.6976 35.3486 24.7262 34.8939 24.9572C34.4751 25.17 34.3317 25.3592 34.3317 25.6992C34.3317 25.9376 34.3775 26.0421 34.5375 26.1679C34.8198 26.39 35.0412 26.3716 35.5513 26.0837C35.9081 25.8824 36.0001 25.8575 36.0575 25.947C36.2871 26.3054 36.7581 27.9167 36.8571 28.6827L36.9037 29.0437L36.3068 29.082C35.6096 29.1267 35.4253 29.2705 35.4253 29.7699C35.4253 30.2185 35.6867 30.3918 36.3636 30.3918H36.8903L36.8508 30.7629C36.7737 31.4885 36.2963 33.1355 36.0526 33.5164C35.9887 33.6164 35.9083 33.5954 35.5051 33.3738C34.9883 33.0898 34.6971 33.0859 34.4494 33.3597C34.2886 33.5374 34.2624 34.0028 34.4036 34.173C34.4601 34.241 34.697 34.4057 34.9301 34.5391L35.354 34.7817L35.1403 35.0669C34.6298 35.7487 34.1823 36.2184 33.5989 36.6852L32.9744 37.1848L32.7167 36.7275C32.4393 36.2352 32.1392 36.0375 31.8182 36.1354C31.301 36.2933 31.2248 36.7345 31.6001 37.3995L31.8369 37.8192L31.421 38.0031C30.6732 38.3339 29.3335 38.672 28.7711 38.672C28.5512 38.672 28.5511 38.672 28.5511 38.1339C28.5511 37.4956 28.4223 37.2843 27.9905 37.2153C27.7512 37.1769 27.6699 37.2029 27.5023 37.3703C27.3244 37.5482 27.3013 37.6346 27.3013 38.1217V38.672H27.033C26.4646 38.672 25.2394 38.3556 24.424 37.9982L24.0074 37.8156L24.2482 37.3945C24.6168 36.7505 24.5307 36.2454 24.0339 36.1363C23.6679 36.0559 23.4208 36.2082 23.156 36.6773C23.0218 36.9151 22.8714 37.1097 22.8218 37.1097C22.647 37.1097 21.433 36.0017 20.9719 35.4214C20.7152 35.0984 20.5053 34.8192 20.5053 34.8009C20.5053 34.7826 20.6994 34.6581 20.9367 34.5241C21.4069 34.2588 21.5208 34.1124 21.5208 33.7733C21.5208 33.4706 21.3333 33.2267 21.0533 33.1651C20.8737 33.1258 20.704 33.1758 20.3131 33.3833L19.8059 33.6527L19.5793 33.0573C19.267 32.2367 19.2027 32.0126 19.0638 31.262C18.8913 30.3292 18.8604 30.3918 19.4933 30.3918C19.9735 30.3918 20.0681 30.3674 20.2354 30.2C20.4383 29.9972 20.4888 29.6375 20.3507 29.3794C20.2467 29.1852 19.8645 29.0639 19.3562 29.0639H18.9334L18.9841 28.6928C19.1104 27.7682 19.5866 26.1511 19.8025 25.9136C19.8348 25.8781 20.0529 25.9572 20.2872 26.0894C20.5215 26.2216 20.8086 26.3298 20.9252 26.3298C21.211 26.3298 21.5208 26.0099 21.5208 25.7148C21.5208 25.345 21.4531 25.2534 20.9856 24.9903C20.7429 24.8538 20.5306 24.7311 20.5139 24.7178C20.4598 24.6748 21.1279 23.8358 21.5615 23.4022C21.9977 22.9661 22.8336 22.301 22.8784 22.3545C22.8925 22.3712 23.0007 22.5526 23.1189 22.7574C23.4748 23.3741 23.8705 23.5243 24.2833 23.1995C24.5689 22.9748 24.5591 22.594 24.2548 22.0996C24.1259 21.8901 24.0205 21.7049 24.0205 21.6881C24.0205 21.6171 25.2016 21.1746 25.7781 21.0295C26.4199 20.868 26.7118 20.8157 27.0865 20.7954L27.3013 20.7836V21.345ZM27.6413 24.4545C27.549 24.4918 27.4436 24.5686 27.4069 24.6253C27.3704 24.6821 27.3228 25.5982 27.3013 26.6611L27.2622 28.5938L25.6624 27.6805C23.9759 26.7178 23.7128 26.6285 23.3994 26.9122C23.1916 27.1003 23.1775 27.6563 23.376 27.8342C23.4512 27.9015 24.4609 28.5046 25.6198 29.1742C26.9795 29.96 27.8051 30.3918 27.9473 30.3918C28.0771 30.3918 28.2464 30.313 28.3594 30.2L28.5511 30.0084V27.4334C28.5511 26.0171 28.5293 24.8015 28.5026 24.732C28.4502 24.5954 28.0756 24.3738 27.9106 24.3819C27.8548 24.3846 27.7336 24.4173 27.6413 24.4545ZM4.05083 25.5466C3.63955 25.716 3.63236 25.7686 3.63236 28.6161V31.2582L3.82414 31.4499L4.01583 31.6417H7.13537C10.0898 31.6417 10.2646 31.6338 10.4393 31.4924L10.6237 31.3432L10.6461 28.6489L10.6685 25.9547L10.4771 25.7322L10.2858 25.5096L7.25199 25.4937C5.58345 25.4849 4.14292 25.5088 4.05083 25.5466ZM13.2684 25.548C12.8588 25.7133 12.85 25.7761 12.85 28.5307C12.85 30.2382 12.8788 31.1507 12.9367 31.2779C13.0822 31.5971 13.3114 31.6417 14.8101 31.6417C16.1987 31.6417 16.2184 31.6393 16.4077 31.4499C16.6615 31.1963 16.6665 30.7943 16.4187 30.5616C16.252 30.405 16.1579 30.3918 15.208 30.3918H14.1779V28.5952V26.7985H15.3782C16.4741 26.7985 16.5963 26.7845 16.7842 26.6366C16.9364 26.5169 16.9901 26.4036 16.9901 26.2019C16.9901 25.8312 16.8833 25.6593 16.5895 25.5569C16.2959 25.4545 13.5184 25.4471 13.2684 25.548ZM9.33478 28.5952V30.3918H7.14755H4.96032V28.5952V26.7985H7.14755H9.33478V28.5952Z" fill="#EA78A1"/>
</g>
</svg>
