<svg width="29" height="40" viewBox="0 0 29 40" fill="none" xmlns="http://www.w3.org/2000/svg">
<g id="image 18 (Traced)">
<path id="image 18 (Traced)_2" fill-rule="evenodd" clip-rule="evenodd" d="M12.1904 0.107664C11.782 0.172617 11.3693 0.277042 11.2732 0.33965C10.9344 0.560536 10.9456 1.13089 11.2932 1.35865C11.4735 1.47675 11.5522 1.47597 12.3666 1.34818C13.5812 1.15754 15.3756 1.17153 16.5761 1.381C19.9391 1.96785 22.9672 3.85171 25.0075 6.62631C25.6351 7.47992 26.4505 9.01815 26.7923 9.99346C27.2784 11.3804 27.4529 12.3852 27.4923 14.0248C27.5819 17.7455 26.6881 21.2073 24.4888 25.6588C23.8481 26.9555 23.8203 27.0332 23.9149 27.2616C24.105 27.7205 24.6352 27.8009 24.9561 27.4196C25.5053 26.7669 27.1412 22.9965 27.7379 21.0082C28.5067 18.4467 28.7196 17.032 28.7208 14.4816C28.7216 12.7477 28.7014 12.4272 28.5412 11.6365C28.0976 9.4464 27.1546 7.34025 25.8429 5.61028C25.3826 5.0032 24.1316 3.71852 23.4848 3.18874C21.6999 1.72672 19.4816 0.684189 17.1494 0.211464C16.021 -0.0173169 13.3296 -0.0735936 12.1904 0.107664ZM8.33174 1.26712C6.93913 1.87929 5.31797 3.01303 4.13717 4.20055C2.18593 6.16289 0.84928 8.6554 0.2615 11.4279C0.0123974 12.6024 -0.0761608 14.9164 0.0722692 16.3685C0.617216 21.6992 3.1503 27.4057 7.63219 33.3992C9.10891 35.374 10.7276 37.2839 12.2596 38.8592C13.1871 39.8129 13.5348 40 14.3789 40C15.2223 40 15.5703 39.8129 16.5001 38.8592C18.6458 36.6583 21.1038 33.5973 22.8884 30.9039C23.7934 29.5378 23.8863 29.2584 23.5308 28.9706C23.3243 28.8033 22.907 28.778 22.7309 28.9221C22.6652 28.9758 22.2722 29.5339 21.8576 30.1623C20.1246 32.7881 17.8077 35.6776 15.6154 37.947C14.5217 39.0792 14.2376 39.0792 13.1397 37.947C11.0636 35.806 8.65487 32.7916 6.9131 30.1546C3.67469 25.2517 1.78347 20.5774 1.32294 16.338C1.18561 15.0735 1.26456 12.6694 1.47466 11.7205C1.98052 9.43538 3.01758 7.36502 4.51813 5.64436C5.5881 4.41753 7.18214 3.21617 8.71161 2.48395C9.1526 2.27291 9.53536 2.04288 9.56217 1.97293C9.65214 1.73844 9.61228 1.4082 9.47424 1.24508C9.24124 0.969793 8.99753 0.974483 8.33174 1.26712ZM12.9329 7.69401C10.3246 8.25169 8.23748 10.4309 7.77578 13.0784C7.55942 14.319 7.67987 15.5403 8.13501 16.7206C8.33933 17.2504 8.41553 17.3634 8.64158 17.4712C8.88756 17.5884 8.92797 17.5882 9.1791 17.4685C9.49902 17.3159 9.60133 17.0301 9.46275 16.6759C9.01543 15.5326 8.95892 15.2714 8.95392 14.3253C8.9504 13.6611 8.98886 13.2416 9.0857 12.8881C9.50824 11.3458 10.5773 10.0494 11.995 9.35996C12.8041 8.96641 13.4597 8.8172 14.3789 8.8172C15.2982 8.8172 15.9537 8.96641 16.7629 9.35996C18.1678 10.0433 19.258 11.367 19.6719 12.8925C19.8537 13.5627 19.8532 14.9335 19.6707 15.6061C19.2598 17.1212 18.1917 18.4308 16.789 19.1387C16.0394 19.5172 15.3 19.6847 14.3789 19.6847C13.1878 19.6847 12.2392 19.3904 11.2547 18.7153C10.6352 18.2905 10.08 18.4584 10.08 19.0706C10.08 19.4797 10.3624 19.7338 11.3697 20.2311C12.4143 20.7468 12.8891 20.8636 14.1272 20.9097C15.4301 20.9581 16.3038 20.7805 17.3574 20.2531C21.4717 18.1935 22.3669 12.7912 19.1354 9.52425C18.2333 8.61233 17.0042 7.94186 15.7696 7.68807C15.02 7.53401 13.6679 7.53682 12.9329 7.69401Z" fill="#50BCEB"/>
</g>
</svg>
