<svg width="15" height="17" viewBox="0 0 15 17" fill="none" xmlns="http://www.w3.org/2000/svg">
<path fill-rule="evenodd" clip-rule="evenodd" d="M6.83241 1.04877C6.03077 1.18474 5.2976 1.56997 4.69945 2.16959C3.93049 2.94048 3.53827 3.90054 3.5396 5.0087C3.54118 6.29689 4.0976 7.44119 5.09256 8.20251L5.3291 8.38351L5.10801 8.46951C3.66625 9.03025 2.37302 10.2516 1.69091 11.6966C1.29042 12.5451 1.10739 13.2953 1.07818 14.2084C1.06396 14.6529 1.06983 14.7702 1.11404 14.9256C1.24931 15.4011 1.62955 15.7958 2.09218 15.941C2.27082 15.9971 2.41697 16.0001 4.97466 16C7.60864 15.9999 7.67123 15.9985 7.76972 15.9379C8.06561 15.7559 8.07587 15.2646 7.78777 15.0741C7.70793 15.0213 7.54057 15.0168 5.07376 15.0022C2.49175 14.9869 2.44294 14.9855 2.33676 14.9226C2.27731 14.8873 2.19583 14.8101 2.15568 14.751C2.08486 14.6468 2.08316 14.6298 2.09997 14.1914C2.12884 13.4381 2.30186 12.7806 2.66217 12.0552C2.93756 11.5008 3.20609 11.131 3.68115 10.6517C4.1562 10.1725 4.52285 9.90156 5.07237 9.62373C5.83772 9.23682 6.39732 9.09783 7.46391 9.02972C7.98589 8.99641 8.2431 8.96542 8.47677 8.90769C9.44354 8.66888 10.293 8.06009 10.8504 7.20655C11.4949 6.21955 11.6669 4.89107 11.2967 3.76002C10.8907 2.51983 9.9109 1.5448 8.69822 1.17413C8.13331 1.00146 7.40134 0.952285 6.83241 1.04877ZM8.26113 2.15272C9.09507 2.3814 9.81003 2.99259 10.1745 3.78849C10.3793 4.2355 10.4204 4.44622 10.4183 5.03861C10.4166 5.52522 10.4095 5.5918 10.3314 5.84942C9.97257 7.03391 8.93652 7.88941 7.75052 7.98063C6.33485 8.08953 5.08628 7.22467 4.66464 5.84308C4.58718 5.58924 4.5809 5.52802 4.5809 5.02301C4.5809 4.51579 4.58693 4.45747 4.66622 4.19661C4.96638 3.20902 5.72622 2.44667 6.68768 2.16844C7.1814 2.02558 7.77575 2.01962 8.26113 2.15272ZM10.9376 9.57586C10.8822 9.60995 10.8093 9.68354 10.7755 9.73946C10.7177 9.83504 10.714 9.89816 10.7139 10.8L10.7138 11.759L9.76326 11.7591C8.86929 11.7592 8.80672 11.7629 8.71198 11.8212C8.56113 11.914 8.48836 12.0561 8.48836 12.2579C8.48836 12.4598 8.56113 12.6019 8.71198 12.6947C8.80672 12.753 8.86929 12.7567 9.76326 12.7568L10.7138 12.7569L10.7139 13.7158C10.714 14.6177 10.7177 14.6808 10.7755 14.7764C10.8674 14.9286 11.0083 15.002 11.2084 15.002C11.4085 15.002 11.5494 14.9286 11.6413 14.7764C11.6991 14.6808 11.7028 14.6177 11.7029 13.7158L11.703 12.7569L12.6535 12.7568C13.5475 12.7567 13.6101 12.753 13.7048 12.6947C13.8557 12.6019 13.9284 12.4598 13.9284 12.2579C13.9284 12.0561 13.8557 11.914 13.7048 11.8212C13.6101 11.7629 13.5475 11.7592 12.6535 11.7591L11.703 11.759L11.7029 10.8C11.7028 9.89816 11.6991 9.83504 11.6413 9.73946C11.5494 9.58728 11.4085 9.51387 11.2084 9.51387C11.0932 9.51387 11.0059 9.53386 10.9376 9.57586Z" fill="white" stroke="white"/>
</svg>
