<svg width="24" height="24" viewBox="0 0 24 24" fill="none" xmlns="http://www.w3.org/2000/svg">
<path d="M18.5 16.1462C18.5 17.9364 17.7888 19.6533 16.523 20.9191C15.2571 22.185 13.5402 22.8962 11.75 22.8962C9.95979 22.8962 8.2429 22.185 6.97703 20.9191C5.71116 19.6533 5 17.9364 5 16.1462C5 11.2762 9.448 3.93415 11.122 1.34615C11.1893 1.24065 11.2822 1.1538 11.3919 1.09365C11.5017 1.03349 11.6248 1.00195 11.75 1.00195C11.8752 1.00195 11.9983 1.03349 12.1081 1.09365C12.2178 1.1538 12.3107 1.24065 12.378 1.34615C14.052 3.93415 18.5 11.2762 18.5 16.1462Z" stroke="#282D41" stroke-width="1.5" stroke-linecap="round" stroke-linejoin="round"/>
<path d="M11.75 19.8995C11.2573 19.8995 10.7694 19.8024 10.3142 19.6137C9.85908 19.4251 9.44555 19.1486 9.09729 18.8001C8.74903 18.4515 8.47287 18.0378 8.28459 17.5825C8.09631 17.1272 7.99961 16.6392 8 16.1465" stroke="#282D41" stroke-width="1.5" stroke-linecap="round" stroke-linejoin="round"/>
</svg>
