<svg width="27" height="24" viewBox="0 0 27 24" fill="none" xmlns="http://www.w3.org/2000/svg">
<path d="M16.5 4.82222V5.76667H20.4375C20.5867 5.76667 20.7298 5.82637 20.8352 5.93264C20.9407 6.03891 21 6.18304 21 6.33333C21 6.48362 20.9407 6.62776 20.8352 6.73403C20.7298 6.8403 20.5867 6.9 20.4375 6.9H6.5625C6.41332 6.9 6.27024 6.8403 6.16475 6.73403C6.05926 6.62776 6 6.48362 6 6.33333C6 6.18304 6.05926 6.03891 6.16475 5.93264C6.27024 5.82637 6.41332 5.76667 6.5625 5.76667H10.5V4.82222C10.5 4.09236 11.088 3.5 11.8125 3.5H15.1875C15.912 3.5 16.5 4.09236 16.5 4.82222ZM11.625 4.82222V5.76667H15.375V4.82222C15.375 4.77213 15.3552 4.72408 15.3201 4.68866C15.2849 4.65323 15.2372 4.63333 15.1875 4.63333H11.8125C11.7628 4.63333 11.7151 4.65323 11.6799 4.68866C11.6448 4.72408 11.625 4.77213 11.625 4.82222ZM8.24775 8.16782C8.24134 8.09322 8.22031 8.02064 8.18589 7.95427C8.15146 7.8879 8.10432 7.82907 8.04719 7.78116C7.99006 7.73326 7.92407 7.69724 7.85303 7.67518C7.782 7.65313 7.70733 7.64547 7.63334 7.65266C7.55936 7.65985 7.48752 7.68174 7.42198 7.71707C7.35644 7.75239 7.2985 7.80046 7.25151 7.85848C7.20452 7.9165 7.16941 7.98332 7.14821 8.0551C7.12701 8.12687 7.12014 8.20216 7.128 8.27662L8.187 19.3062C8.21867 19.6331 8.37001 19.9365 8.61152 20.1572C8.85304 20.3778 9.16744 20.5001 9.4935 20.5H17.5065C17.8327 20.5 18.1472 20.3777 18.3887 20.1569C18.6302 19.936 18.7815 19.6325 18.813 19.3055L19.8727 8.27662C19.8871 8.12693 19.8418 7.97765 19.7468 7.8616C19.6519 7.74555 19.5151 7.67225 19.3665 7.65782C19.2179 7.64339 19.0697 7.68902 18.9545 7.78466C18.8393 7.88031 18.7666 8.01813 18.7523 8.16782L17.6932 19.1959C17.6888 19.2427 17.6672 19.2861 17.6326 19.3176C17.5981 19.3492 17.5531 19.3667 17.5065 19.3667H9.4935C9.44687 19.3667 9.4019 19.3492 9.36737 19.3176C9.33284 19.2861 9.31123 19.2427 9.30675 19.1959L8.24775 8.16782Z" fill="#C0C4CC"/>
<path d="M11.5051 9.50125C11.5754 9.49718 11.6457 9.50672 11.7122 9.52932C11.7787 9.55191 11.84 9.58713 11.8926 9.63295C11.9452 9.67878 11.988 9.73431 12.0187 9.79638C12.0494 9.85844 12.0673 9.92583 12.0714 9.99468L12.4285 15.9437C12.4368 16.0829 12.3884 16.2195 12.2939 16.3237C12.1994 16.4278 12.0666 16.4909 11.9247 16.4991C11.7827 16.5073 11.6432 16.4598 11.537 16.3672C11.4307 16.2746 11.3663 16.1444 11.358 16.0053L11.0009 10.0563C10.9968 9.98742 11.0065 9.91844 11.0296 9.85328C11.0526 9.78812 11.0886 9.72806 11.1353 9.67651C11.1821 9.62497 11.2387 9.58296 11.3021 9.55289C11.3654 9.52282 11.4341 9.50527 11.5044 9.50125H11.5051ZM15.9991 10.0563C16.0074 9.91714 15.959 9.78047 15.8645 9.67632C15.77 9.57217 15.6372 9.50907 15.4953 9.5009C15.3533 9.49274 15.2139 9.54017 15.1076 9.63277C15.0013 9.72537 14.9369 9.85555 14.9286 9.99468L14.5715 15.9437C14.5632 16.0828 14.6116 16.2193 14.706 16.3234C14.8004 16.4275 14.9331 16.4906 15.075 16.4987C15.2169 16.5069 15.3562 16.4595 15.4624 16.367C15.5686 16.2744 15.633 16.1444 15.6413 16.0053L15.9991 10.0563Z" fill="#C0C4CC"/>
</svg>
