<svg width="25" height="24" viewBox="0 0 25 24" fill="none" xmlns="http://www.w3.org/2000/svg">
<g id="Icon / Facebook">
<path id="Vector" d="M17.3885 6H14.3885C13.8362 6 13.3885 6.44772 13.3885 7V10H17.3885C17.5022 9.99748 17.6101 10.0504 17.6777 10.1419C17.7453 10.2334 17.7643 10.352 17.7285 10.46L16.9886 12.66C16.9204 12.8619 16.7317 12.9984 16.5185 13H13.3885V20.5C13.3885 20.7761 13.1646 21 12.8885 21H10.3885C10.1124 21 9.88855 20.7761 9.88855 20.5V13H8.38855C8.11241 13 7.88855 12.7761 7.88855 12.5V10.5C7.88855 10.2239 8.11241 10 8.38855 10H9.88855V7C9.88855 4.79086 11.6794 3 13.8885 3H17.3885C17.6646 3 17.8885 3.22386 17.8885 3.5V5.5C17.8885 5.77614 17.6646 6 17.3885 6Z" fill="white"/>
</g>
</svg>
