<svg xmlns="http://www.w3.org/2000/svg" width="25" height="24" viewBox="0 0 25 24" fill="none">
  <path d="M17.3867 6H14.3867C13.8344 6 13.3867 6.44772 13.3867 7V10H17.3867C17.5004 9.99748 17.6083 10.0504 17.6759 10.1419C17.7435 10.2334 17.7625 10.352 17.7267 10.46L16.9867 12.66C16.9185 12.8619 16.7298 12.9984 16.5167 13H13.3867V20.5C13.3867 20.7761 13.1628 21 12.8867 21H10.3867C10.1106 21 9.88672 20.7761 9.88672 20.5V13H8.38672C8.11058 13 7.88672 12.7761 7.88672 12.5V10.5C7.88672 10.2239 8.11058 10 8.38672 10H9.88672V7C9.88672 4.79086 11.6776 3 13.8867 3H17.3867C17.6628 3 17.8867 3.22386 17.8867 3.5V5.5C17.8867 5.77614 17.6628 6 17.3867 6Z" fill="white"/>
</svg>