<svg width="14" height="13" viewBox="0 0 14 13" fill="none" xmlns="http://www.w3.org/2000/svg">
<path d="M13.4966 6.23828C13.4966 6.66016 13.158 6.99063 12.7743 6.99063H12.052L12.0678 10.7453C12.0678 10.8086 12.0633 10.8719 12.0565 10.9352V11.3125C12.0565 11.8305 11.6525 12.25 11.1537 12.25H10.7925C10.7677 12.25 10.7429 12.25 10.7181 12.2477C10.6865 12.25 10.6549 12.25 10.6233 12.25H9.34797C8.84915 12.25 8.44512 11.8305 8.44512 11.3125V9.25C8.44512 8.83516 8.12235 8.5 7.72284 8.5H6.27827C5.87876 8.5 5.55599 8.83516 5.55599 9.25V11.3125C5.55599 11.8305 5.15196 12.25 4.65313 12.25H3.39139C3.35753 12.25 3.32368 12.2477 3.28982 12.2453C3.26273 12.2477 3.23565 12.25 3.20856 12.25H2.84742C2.34859 12.25 1.94457 11.8305 1.94457 11.3125V8.6875C1.94457 8.66641 1.94457 8.64297 1.94682 8.62188V6.99063H1.22228C0.815999 6.99063 0.5 6.6625 0.5 6.23828C0.5 6.02734 0.567714 5.83984 0.725714 5.67578L6.51301 0.4375C6.67101 0.273438 6.85158 0.25 7.00958 0.25C7.16758 0.25 7.34815 0.296875 7.48358 0.414062L13.2483 5.67578C13.4289 5.83984 13.5192 6.02734 13.4966 6.23828Z" fill="#32C0CC"/>
</svg>
