<svg xmlns="http://www.w3.org/2000/svg" width="25" height="24" viewBox="0 0 25 24" fill="none">
  <path fill-rule="evenodd" clip-rule="evenodd" d="M16.8867 3H8.88672C6.1253 3 3.88672 5.23858 3.88672 8V16C3.88672 18.7614 6.1253 21 8.88672 21H16.8867C19.6481 21 21.8867 18.7614 21.8867 16V8C21.8867 5.23858 19.6481 3 16.8867 3ZM20.1367 16C20.1312 17.7926 18.6793 19.2445 16.8867 19.25H8.88672C7.09407 19.2445 5.64221 17.7926 5.63672 16V8C5.64221 6.20735 7.09407 4.75549 8.88672 4.75H16.8867C18.6793 4.75549 20.1312 6.20735 20.1367 8V16ZM17.6367 8.25C18.189 8.25 18.6367 7.80228 18.6367 7.25C18.6367 6.69772 18.189 6.25 17.6367 6.25C17.0844 6.25 16.6367 6.69772 16.6367 7.25C16.6367 7.80228 17.0844 8.25 17.6367 8.25ZM12.8867 7.5C10.4014 7.5 8.38672 9.51472 8.38672 12C8.38672 14.4853 10.4014 16.5 12.8867 16.5C15.372 16.5 17.3867 14.4853 17.3867 12C17.3894 10.8057 16.9161 9.65957 16.0716 8.81508C15.2271 7.97059 14.081 7.49734 12.8867 7.5ZM10.1367 12C10.1367 13.5188 11.3679 14.75 12.8867 14.75C14.4055 14.75 15.6367 13.5188 15.6367 12C15.6367 10.4812 14.4055 9.25 12.8867 9.25C11.3679 9.25 10.1367 10.4812 10.1367 12Z" fill="white"/>
</svg>