<svg width="14" height="17" viewBox="0 0 14 17" fill="none" xmlns="http://www.w3.org/2000/svg">
<path fill-rule="evenodd" clip-rule="evenodd" d="M5.75913 0.542155C4.70103 0.699915 3.80193 1.16972 2.97428 1.99738C2.1295 2.84215 1.69615 3.68461 1.51758 4.82917C1.48507 5.03749 1.47349 5.45476 1.47309 6.43273L1.47252 7.7547H1.2734C0.847087 7.7547 0.563169 7.85548 0.328564 8.09009C0.161949 8.2567 0.0852283 8.39738 0.0370743 8.6245C-0.0120808 8.85645 -0.0124876 15.4424 0.0366363 15.6771C0.0982132 15.9712 0.326123 16.2641 0.612074 16.4166L0.76852 16.5H6.57265H12.3768L12.5332 16.4166C12.8192 16.2641 13.0471 15.9712 13.1087 15.6771C13.1578 15.4424 13.1574 8.85645 13.1082 8.6245C13.0601 8.39738 12.9833 8.2567 12.8167 8.09009C12.5821 7.85548 12.2982 7.7547 11.8719 7.7547H11.6728L11.6722 6.43273C11.6718 5.45476 11.6602 5.03749 11.6277 4.82917C11.4491 3.68461 11.0158 2.84215 10.171 1.99738C9.32261 1.14898 8.3856 0.670785 7.29514 0.529671C6.95037 0.485052 6.09539 0.491999 5.75913 0.542155ZM7.31013 2.796C8.12355 2.99991 8.84652 3.61437 9.21667 4.4164C9.44186 4.90436 9.48062 5.23793 9.48172 6.69869L9.48253 7.7547H6.57265H3.66276L3.66357 6.69869C3.66467 5.23793 3.70344 4.90436 3.92862 4.4164C4.07265 4.10432 4.23551 3.86743 4.4918 3.59722C5.2234 2.82579 6.25694 2.53199 7.31013 2.796Z" fill="white"/>
</svg>
