<svg xmlns="http://www.w3.org/2000/svg" width="25" height="24" viewBox="0 0 25 24" fill="none">
  <path d="M21.8604 6.7174C21.396 7.33692 20.8346 7.87733 20.1979 8.31776C20.1979 8.47959 20.1979 8.64142 20.1979 8.81225C20.203 11.7511 19.0291 14.5691 16.9394 16.6345C14.8496 18.6999 12.0188 19.8399 9.08162 19.7989C7.38356 19.8046 5.70725 19.4169 4.184 18.6661C4.10186 18.6302 4.04889 18.549 4.0492 18.4593V18.3604C4.0492 18.2313 4.15381 18.1267 4.28285 18.1267C5.952 18.0716 7.56159 17.4929 8.88391 16.4724C7.37311 16.4419 6.01377 15.5469 5.38818 14.1707C5.35659 14.0956 5.36642 14.0093 5.41415 13.9432C5.46187 13.8771 5.54058 13.8407 5.62183 13.8471C6.081 13.8932 6.54476 13.8505 6.98778 13.7212C5.31997 13.375 4.06679 11.9904 3.88744 10.2957C3.88107 10.2144 3.9175 10.1357 3.98358 10.0879C4.04965 10.0402 4.13582 10.0303 4.21096 10.062C4.65852 10.2595 5.14167 10.3635 5.63082 10.3676C4.16942 9.40846 3.53819 7.58405 4.09413 5.92622C4.15152 5.76513 4.28939 5.64612 4.45708 5.61294C4.62476 5.57975 4.79754 5.63728 4.9119 5.76439C6.88397 7.86325 9.59361 9.11396 12.4695 9.25279C12.3959 8.95885 12.3597 8.65676 12.3617 8.35372C12.3886 6.76472 13.3718 5.34921 14.851 4.76987C16.3301 4.19054 18.0125 4.56203 19.1106 5.71044C19.859 5.56785 20.5826 5.31645 21.2583 4.96421C21.3078 4.93331 21.3706 4.93331 21.4201 4.96421C21.451 5.01373 21.451 5.07652 21.4201 5.12604C21.0928 5.87552 20.5399 6.50412 19.8385 6.92419C20.4527 6.85296 21.0561 6.70807 21.6358 6.49264C21.6846 6.45942 21.7487 6.45942 21.7975 6.49264C21.8384 6.51134 21.869 6.54711 21.8811 6.59042C21.8932 6.63373 21.8856 6.68018 21.8604 6.7174Z" fill="white"/>
</svg>